# Blender v3.3.0 OBJ File: 'vfx2.blend'
# www.blender.org
o flat_energy_bar_Cube
v 1.097194 0.000000 1.287476
v 1.097194 -0.054510 0.153684
v 1.097194 0.054510 0.153684
v 0.658316 -0.096267 -0.225675
v 0.219439 -0.105070 -0.392602
v 0.219439 0.105070 -0.392602
v 0.658316 0.096267 -0.225675
v 0.219439 0.000000 0.444661
v 0.658316 0.000000 0.611588
v 0.998001 0.000000 0.928897
v 1.017492 -0.023696 0.168151
v 1.017492 0.023696 0.168151
v 0.640582 -0.062121 -0.197036
v 0.213146 -0.070985 -0.359448
v 0.213146 0.070985 -0.359448
v 0.640582 0.062121 -0.197036
v 0.227044 -0.000000 0.104257
v 0.678349 0.000000 0.250026
v 0.977245 0.000000 0.742945
v 0.989202 -0.012771 0.180634
v 0.989202 0.012771 0.180634
v 0.624858 -0.032285 -0.173762
v 0.207897 -0.040665 -0.332388
v 0.207897 0.040665 -0.332388
v 0.624858 0.032285 -0.173762
v 0.234406 -0.000000 -0.083878
v 0.906057 0.000000 0.199818
v 0.000000 -0.040665 -0.332388
v 0.000000 0.040665 -0.332388
v 0.000000 -0.000000 -0.083878
v 0.000000 -0.070985 -0.359448
v 0.000000 0.070985 -0.359448
v 0.000000 -0.000000 0.104257
v 0.000000 -0.105070 -0.392602
v 0.000000 0.105070 -0.392602
v 0.000000 0.000000 0.444661
v -1.097194 0.000000 1.287476
v -1.097194 -0.054510 0.153684
v -1.097194 0.054510 0.153684
v -0.658316 -0.096267 -0.225675
v -0.219439 -0.105070 -0.392602
v -0.219439 0.105070 -0.392602
v -0.658316 0.096267 -0.225675
v -0.219439 0.000000 0.444661
v -0.658316 0.000000 0.611588
v -0.998001 0.000000 0.928897
v -1.017492 -0.023696 0.168151
v -1.017492 0.023696 0.168151
v -0.640582 -0.062121 -0.197036
v -0.213146 -0.070985 -0.359448
v -0.213146 0.070985 -0.359448
v -0.640582 0.062121 -0.197036
v -0.227044 -0.000000 0.104257
v -0.678349 0.000000 0.250026
v -0.977245 0.000000 0.742945
v -0.989202 -0.012771 0.180634
v -0.989202 0.012771 0.180634
v -0.624858 -0.032285 -0.173762
v -0.207897 -0.040665 -0.332388
v -0.207897 0.040665 -0.332388
v -0.624858 0.032285 -0.173762
v -0.234406 -0.000000 -0.083878
v -0.906057 0.000000 0.199818
vt 0.375000 0.450000
vt 0.375000 0.500000
vt 0.625000 0.500000
vt 0.625000 0.450000
vt 0.625000 0.750000
vt 0.325000 0.500000
vt 0.325000 0.750000
vt 0.375000 0.750000
vt 0.675000 0.750000
vt 0.675000 0.500000
vt 0.725000 0.750000
vt 0.725000 0.500000
vt 0.250000 0.500000
vt 0.250000 0.750000
vt 0.275000 0.750000
vt 0.275000 0.500000
vt 0.375000 0.375000
vt 0.375000 0.400000
vt 0.625000 0.400000
vt 0.625000 0.375000
vt 0.375000 0.450000
vt 0.375000 0.500000
vt 0.625000 0.500000
vt 0.625000 0.450000
vt 0.625000 0.750000
vt 0.325000 0.500000
vt 0.325000 0.750000
vt 0.375000 0.750000
vt 0.675000 0.750000
vt 0.675000 0.500000
vt 0.725000 0.750000
vt 0.725000 0.500000
vt 0.250000 0.500000
vt 0.250000 0.750000
vt 0.275000 0.750000
vt 0.275000 0.500000
vt 0.375000 0.375000
vt 0.375000 0.400000
vt 0.625000 0.400000
vt 0.625000 0.375000
vt 0.375000 0.450000
vt 0.375000 0.500000
vt 0.625000 0.500000
vt 0.625000 0.450000
vt 0.625000 0.750000
vt 0.325000 0.500000
vt 0.325000 0.750000
vt 0.375000 0.750000
vt 0.675000 0.750000
vt 0.675000 0.500000
vt 0.725000 0.750000
vt 0.725000 0.500000
vt 0.250000 0.500000
vt 0.250000 0.750000
vt 0.275000 0.750000
vt 0.275000 0.500000
vt 0.375000 0.375000
vt 0.375000 0.400000
vt 0.625000 0.400000
vt 0.625000 0.375000
vt 0.750000 0.750000
vt 0.750000 0.500000
vt 0.750000 0.750000
vt 0.750000 0.500000
vt 0.750000 0.750000
vt 0.750000 0.500000
vt 0.375000 0.450000
vt 0.625000 0.450000
vt 0.625000 0.500000
vt 0.375000 0.500000
vt 0.625000 0.750000
vt 0.325000 0.500000
vt 0.375000 0.750000
vt 0.325000 0.750000
vt 0.675000 0.500000
vt 0.675000 0.750000
vt 0.725000 0.500000
vt 0.725000 0.750000
vt 0.275000 0.500000
vt 0.275000 0.750000
vt 0.625000 0.400000
vt 0.375000 0.400000
vt 0.375000 0.450000
vt 0.625000 0.450000
vt 0.625000 0.500000
vt 0.375000 0.500000
vt 0.625000 0.750000
vt 0.325000 0.500000
vt 0.375000 0.750000
vt 0.325000 0.750000
vt 0.675000 0.500000
vt 0.675000 0.750000
vt 0.725000 0.500000
vt 0.725000 0.750000
vt 0.275000 0.500000
vt 0.275000 0.750000
vt 0.625000 0.400000
vt 0.375000 0.400000
vt 0.375000 0.450000
vt 0.625000 0.450000
vt 0.625000 0.500000
vt 0.375000 0.500000
vt 0.625000 0.750000
vt 0.325000 0.500000
vt 0.375000 0.750000
vt 0.325000 0.750000
vt 0.675000 0.500000
vt 0.675000 0.750000
vt 0.725000 0.500000
vt 0.725000 0.750000
vt 0.275000 0.500000
vt 0.275000 0.750000
vt 0.625000 0.400000
vt 0.375000 0.400000
vn -0.3697 0.7119 0.5971
vn -0.7045 0.6424 0.3016
vn -0.7045 -0.6424 0.3016
vn -0.3697 -0.7119 0.5971
vn -0.4551 0.0000 -0.8904
vn 0.4177 0.0000 -0.9086
vn 0.1586 -0.0000 -0.9873
vn -0.1312 -0.7106 0.6912
vn 0.0000 0.7498 0.6616
vn 0.0000 -0.0000 -1.0000
vn -0.1312 0.7106 0.6912
vn 0.0000 -0.7498 0.6616
vn -0.3911 0.7122 0.5830
vn -0.7152 0.6437 0.2723
vn -0.7152 -0.6437 0.2723
vn -0.3911 -0.7122 0.5830
vn -0.1924 -0.0000 -0.9813
vn 0.4626 -0.0000 -0.8865
vn 0.1525 -0.0000 -0.9883
vn -0.1314 -0.7193 0.6822
vn 0.0000 0.7587 0.6514
vn -0.1314 0.7193 0.6822
vn 0.0000 -0.7587 0.6514
vn -0.3915 0.7126 0.5821
vn -0.6912 0.6705 0.2697
vn -0.6912 -0.6705 0.2697
vn -0.3915 -0.7126 0.5821
vn -0.1790 0.0000 -0.9838
vn 0.7800 0.0000 -0.6258
vn 0.1905 -0.0000 -0.9817
vn -0.1305 -0.7205 0.6811
vn -0.0000 0.7621 0.6475
vn -0.1305 0.7205 0.6811
vn -0.0000 -0.7621 0.6475
vn 0.3697 0.7119 0.5971
vn 0.3697 -0.7119 0.5971
vn 0.7045 -0.6424 0.3016
vn 0.7045 0.6424 0.3016
vn 0.4551 0.0000 -0.8904
vn -0.4177 0.0000 -0.9086
vn 0.1312 -0.7106 0.6912
vn -0.1586 0.0000 -0.9873
vn 0.1312 0.7106 0.6912
vn 0.3911 0.7122 0.5830
vn 0.3911 -0.7122 0.5830
vn 0.7152 -0.6437 0.2723
vn 0.7152 0.6437 0.2723
vn 0.1924 0.0000 -0.9813
vn -0.4626 -0.0000 -0.8865
vn 0.1314 -0.7193 0.6822
vn -0.1525 -0.0000 -0.9883
vn 0.1314 0.7193 0.6822
vn 0.3915 0.7126 0.5821
vn 0.3915 -0.7126 0.5821
vn 0.6912 -0.6705 0.2697
vn 0.6912 0.6705 0.2697
vn 0.1790 0.0000 -0.9838
vn -0.7800 0.0000 -0.6258
vn 0.1305 -0.7205 0.6811
vn -0.1905 -0.0000 -0.9817
vn 0.1305 0.7205 0.6811
s 1
f 4/1/1 2/2/2 3/3/3 7/4/4
f 2/2/2 1/5/5 3/3/3
f 4/6/1 9/7/6 1/8/5 2/2/2
f 3/3/3 1/5/5 9/9/6 7/10/4
f 7/10/4 9/9/6 8/11/7 6/12/8
f 34/13/9 36/14/10 8/15/7 5/16/11
f 5/16/11 8/15/7 9/7/6 4/6/1
f 34/17/9 5/18/11 6/19/8 35/20/12
f 5/18/11 4/1/1 7/4/4 6/19/8
f 13/21/13 11/22/14 12/23/15 16/24/16
f 11/22/14 10/25/17 12/23/15
f 13/26/13 18/27/18 10/28/17 11/22/14
f 12/23/15 10/25/17 18/29/18 16/30/16
f 16/30/16 18/29/18 17/31/19 15/32/20
f 31/33/21 33/34/10 17/35/19 14/36/22
f 14/36/22 17/35/19 18/27/18 13/26/13
f 31/37/21 14/38/22 15/39/20 32/40/23
f 14/38/22 13/21/13 16/24/16 15/39/20
f 22/41/24 20/42/25 21/43/26 25/44/27
f 20/42/25 19/45/28 21/43/26
f 22/46/24 27/47/29 19/48/28 20/42/25
f 21/43/26 19/45/28 27/49/29 25/50/27
f 25/50/27 27/49/29 26/51/30 24/52/31
f 28/53/32 30/54/10 26/55/30 23/56/33
f 23/56/33 26/55/30 27/47/29 22/46/24
f 28/57/32 23/58/33 24/59/31 29/60/34
f 23/58/33 22/41/24 25/44/27 24/59/31
f 24/52/31 26/51/30 30/61/10 29/62/34
f 15/32/20 17/31/19 33/63/10 32/64/23
f 6/12/8 8/11/7 36/65/10 35/66/12
f 40/67/35 43/68/36 39/69/37 38/70/38
f 38/70/38 39/69/37 37/71/39
f 40/72/35 38/70/38 37/73/39 45/74/40
f 39/69/37 43/75/36 45/76/40 37/71/39
f 43/75/36 42/77/41 44/78/42 45/76/40
f 34/13/9 41/79/43 44/80/42 36/14/10
f 41/79/43 40/72/35 45/74/40 44/80/42
f 34/17/9 35/20/12 42/81/41 41/82/43
f 41/82/43 42/81/41 43/68/36 40/67/35
f 49/83/44 52/84/45 48/85/46 47/86/47
f 47/86/47 48/85/46 46/87/48
f 49/88/44 47/86/47 46/89/48 54/90/49
f 48/85/46 52/91/45 54/92/49 46/87/48
f 52/91/45 51/93/50 53/94/51 54/92/49
f 31/33/21 50/95/52 53/96/51 33/34/10
f 50/95/52 49/88/44 54/90/49 53/96/51
f 31/37/21 32/40/23 51/97/50 50/98/52
f 50/98/52 51/97/50 52/84/45 49/83/44
f 58/99/53 61/100/54 57/101/55 56/102/56
f 56/102/56 57/101/55 55/103/57
f 58/104/53 56/102/56 55/105/57 63/106/58
f 57/101/55 61/107/54 63/108/58 55/103/57
f 61/107/54 60/109/59 62/110/60 63/108/58
f 28/53/32 59/111/61 62/112/60 30/54/10
f 59/111/61 58/104/53 63/106/58 62/112/60
f 28/57/32 29/60/34 60/113/59 59/114/61
f 59/114/61 60/113/59 61/100/54 58/99/53
f 60/109/59 29/62/34 30/61/10 62/110/60
f 51/93/50 32/64/23 33/63/10 53/94/51
f 42/77/41 35/66/12 36/65/10 44/78/42
