# Blender v3.3.0 OBJ File: 'vfx2.blend'
# www.blender.org
o Cube_Cube.004
v -0.050000 -0.050000 0.125000
v -0.050000 0.050000 0.125000
v -0.021185 -0.021185 -0.125000
v -0.021185 0.021185 -0.125000
v 0.050000 -0.050000 0.125000
v 0.050000 0.050000 0.125000
v 0.021185 -0.021185 -0.125000
v 0.021185 0.021185 -0.125000
v -0.050000 -0.050000 -0.075011
v -0.050000 0.050000 -0.075011
v 0.050000 -0.050000 -0.075011
v 0.050000 0.050000 -0.075011
v -0.034175 -0.034175 0.086299
v 0.034175 0.034175 0.086299
v -0.034175 0.034175 0.086299
v 0.034175 -0.034175 0.086299
vt 0.560683 0.785833
vt 0.560683 0.785833
vt 0.579980 0.808499
vt 0.579980 0.808499
vt 0.608355 0.808499
vt 0.608355 0.808499
vt 0.617054 0.807006
vt 0.617054 0.807006
vt 0.627651 0.784663
vt 0.627651 0.784663
vt 0.560683 0.784663
vt 0.560683 0.784663
vt 0.571281 0.807006
vt 0.571281 0.807006
vt 0.627651 0.785833
vt 0.627651 0.785833
vt 0.997270 0.426097
vt 0.997270 0.426097
vt 0.886516 0.415499
vt 0.886516 0.415499
vt 0.886516 0.482467
vt 0.997270 0.471869
vt 0.886516 0.482467
vt 0.997270 0.471869
vn -0.6878 -0.6878 -0.2321
vn -0.6878 0.6878 -0.2321
vn -0.4023 0.4023 -0.8224
vn -0.4023 -0.4023 -0.8224
vn 0.4023 0.4023 -0.8224
vn 0.4023 -0.4023 -0.8224
vn 0.6886 -0.6886 -0.2271
vn 0.6886 0.6886 -0.2271
vn 0.6533 0.6533 0.3827
vn 0.6533 -0.6533 0.3827
vn -0.6533 0.6533 0.3827
vn -0.6533 -0.6533 0.3827
vn -0.6886 -0.6886 -0.2271
vn -0.6886 0.6886 -0.2271
vn 0.6878 0.6878 -0.2321
vn 0.6878 -0.6878 -0.2321
s 1
f 9/1/1 10/2/2 4/3/3 3/4/4
f 3/4/4 4/3/3 8/5/5 7/6/6
f 16/7/7 14/8/8 6/9/9 5/10/10
f 5/10/10 6/9/9 2/11/11 1/12/12
f 13/13/13 16/7/7 5/10/10 1/12/12
f 14/8/8 15/14/14 2/11/11 6/9/9
f 8/5/5 4/3/3 10/2/2 12/15/15
f 3/4/4 7/6/6 11/16/16 9/1/1
f 7/6/6 8/5/5 12/15/15 11/16/16
f 13/17/13 15/18/14 10/19/2 9/20/1
f 1/12/12 2/11/11 15/14/14 13/13/13
f 12/21/15 10/19/2 15/18/14 14/22/8
f 9/20/1 11/23/16 16/24/7 13/17/13
f 11/23/16 12/21/15 14/22/8 16/24/7
