# Blender v3.3.0 OBJ File: 'vfx2.blend'
# www.blender.org
o Cube.003_Cube.008
v 0.271184 -0.228610 -0.156878
v 0.360621 -0.145758 -0.158152
v 0.188330 -0.139166 -0.156614
v 0.277768 -0.056314 -0.157888
v 0.270161 -0.145064 -0.629740
v -0.277767 0.097524 -0.143177
v -0.188330 0.179117 -0.157618
v -0.360621 0.185870 -0.157148
v -0.271184 0.267463 -0.171589
v -0.278791 0.104765 -0.623308
v 0.271184 0.097524 -0.143177
v 0.360621 0.179117 -0.157618
v 0.188330 0.185870 -0.157148
v 0.277768 0.267463 -0.171589
v 0.270161 0.104765 -0.623308
v -0.277767 -0.228610 -0.156878
v -0.188330 -0.145758 -0.158152
v -0.360621 -0.139166 -0.156614
v -0.271184 -0.056314 -0.157888
v -0.278791 -0.145064 -0.629740
vt 0.094720 0.852095
vt 0.299694 0.777854
vt 0.547536 0.933866
vt 0.282399 0.551539
vt 0.093019 0.640994
vt 0.083060 0.466590
vt 0.298938 0.436208
vt 0.509286 0.639971
vt 0.328678 0.211190
vt 0.124923 0.259675
vt 0.733100 0.414840
vt 0.730246 0.632827
vt 0.496821 0.809684
vt 0.948108 0.696494
vt 0.931225 0.487731
vt 0.695820 0.055337
vt 0.702247 0.273248
vt 0.476562 0.459881
vt 0.922622 0.327584
vt 0.896868 0.119729
vn -0.6751 0.7269 -0.1258
vn 0.6728 -0.7283 -0.1301
vn -0.7287 -0.6747 -0.1176
vn 0.7264 0.6733 -0.1383
vn -0.6751 0.6976 -0.2399
vn 0.6728 -0.7397 -0.0126
vn -0.7287 -0.6848 -0.0088
vn 0.7264 0.6427 -0.2437
s off
f 3/1/1 4/2/1 5/3/1
f 5/3/2 2/4/2 1/5/2
f 3/1/3 5/3/3 1/5/3
f 5/3/4 4/2/4 2/4/4
f 8/6/5 9/7/5 10/8/5
f 10/8/6 7/9/6 6/10/6
f 8/6/7 10/8/7 6/10/7
f 10/8/8 9/7/8 7/9/8
f 13/11/5 14/12/5 15/13/5
f 15/13/6 12/14/6 11/15/6
f 13/11/7 15/13/7 11/15/7
f 15/13/8 14/12/8 12/14/8
f 18/16/1 19/17/1 20/18/1
f 20/18/2 17/19/2 16/20/2
f 18/16/3 20/18/3 16/20/3
f 20/18/4 19/17/4 17/19/4
