# Blender v3.3.0 OBJ File: 'vfx2.blend'
# www.blender.org
o mid_Cube.007
v -0.089762 -0.089762 -0.000718
v -0.089762 0.089762 -0.000718
v -0.089762 -0.089762 -1.000145
v -0.089762 0.089762 -1.000145
v 0.089762 -0.089762 -0.000718
v 0.089762 0.089762 -0.000718
v 0.089762 -0.089762 -1.000145
v 0.089762 0.089762 -1.000145
v -0.068674 -0.068674 -0.000938
v -0.068674 0.068674 -0.000938
v -0.068674 -0.068674 -1.000000
v -0.068674 0.068674 -1.000000
v 0.068674 -0.068674 -0.000938
v 0.068674 0.068674 -0.000938
v 0.068674 -0.068674 -1.000000
v 0.068674 0.068674 -1.000000
v -0.117575 -0.117575 -0.000667
v -0.117575 0.117575 -0.000667
v -0.117575 -0.117575 -1.000179
v -0.117575 0.117575 -1.000179
v 0.117575 -0.117575 -0.000667
v 0.117575 0.117575 -0.000667
v 0.117575 -0.117575 -1.000179
v 0.117575 0.117575 -1.000179
v 0.000000 -0.171208 -1.000179
v 0.000000 0.171208 -1.000179
v 0.000000 -0.171208 -0.000667
v 0.000000 0.171208 -0.000667
v 0.000000 -0.130708 -1.000145
v 0.000000 0.130708 -1.000145
v 0.000000 -0.130708 -0.000718
v 0.000000 0.130708 -0.000718
v 0.000000 -0.100000 -1.000000
v 0.000000 0.100000 -1.000000
v 0.000000 -0.100000 -0.000938
v 0.000000 0.100000 -0.000938
v -0.171208 0.000000 -0.000667
v -0.171208 0.000000 -1.000179
v 0.171208 0.000000 -1.000179
v 0.171208 0.000000 -0.000667
v 0.000000 0.000000 -0.000667
v 0.000000 0.000000 -1.000179
v -0.130708 0.000000 -0.000718
v -0.130708 0.000000 -1.000145
v 0.130708 0.000000 -1.000145
v 0.130708 0.000000 -0.000718
v 0.000000 0.000000 -0.000718
v 0.000000 0.000000 -1.000145
v -0.100000 0.000000 -0.000938
v -0.100000 0.000000 -1.000000
v 0.100000 0.000000 -1.000000
v 0.100000 0.000000 -0.000938
v 0.000000 0.000000 -0.000938
v 0.000000 0.000000 -1.000000
v -0.148642 -0.148642 -0.000015
v -0.148642 0.148642 -0.000015
v -0.148642 -0.148642 -1.000609
v -0.148642 0.148642 -1.000609
v 0.148642 -0.148642 -0.000015
v 0.148642 0.148642 -0.000015
v 0.148642 -0.148642 -1.000609
v 0.148642 0.148642 -1.000609
v 0.000000 -0.216446 -1.000609
v 0.000000 0.216446 -1.000609
v 0.000000 -0.216446 -0.000015
v 0.000000 0.216446 -0.000015
v -0.216446 0.000000 -0.000015
v -0.216446 0.000000 -1.000609
v 0.216446 0.000000 -1.000609
v 0.216446 0.000000 -0.000015
v 0.000000 0.000000 -0.000015
v 0.000000 0.000000 -1.000609
vt 0.443180 0.931545
vt 0.443180 0.931545
vt 0.431345 0.931545
vt 0.431345 0.931545
vt 0.405400 0.931545
vt 0.367619 0.931545
vt 0.379454 0.931545
vt 0.405400 0.931545
vt 0.367619 0.931545
vt 0.379454 0.931545
vt 0.405400 0.931545
vt 0.405400 0.931545
vt 0.379454 0.931545
vt 0.379454 0.931545
vt 0.405400 0.931545
vt 0.405400 0.931545
vt 0.178581 0.931545
vt 0.178581 0.931545
vt 0.166099 0.931545
vt 0.166099 0.931545
vt 0.138734 0.931545
vt 0.098887 0.931545
vt 0.111370 0.931545
vt 0.138734 0.931545
vt 0.098887 0.931545
vt 0.111370 0.931545
vt 0.138734 0.931545
vt 0.138734 0.931545
vt 0.111370 0.931545
vt 0.111370 0.931545
vt 0.138734 0.931545
vt 0.138734 0.931545
vt 0.661936 0.931545
vt 0.661936 0.931545
vt 0.650131 0.931545
vt 0.650131 0.931545
vt 0.624251 0.931545
vt 0.586565 0.931545
vt 0.598371 0.931545
vt 0.624251 0.931545
vt 0.586565 0.931545
vt 0.598371 0.931545
vt 0.624251 0.931545
vt 0.624251 0.931545
vt 0.598371 0.931545
vt 0.598371 0.931545
vt 0.624251 0.931545
vt 0.624251 0.931545
vt 0.650131 0.931545
vt 0.650131 0.931545
vt 0.431345 0.931545
vt 0.431345 0.931545
vt 0.166099 0.931545
vt 0.166099 0.931545
vt 0.902732 0.931545
vt 0.902732 0.931545
vt 0.889537 0.931545
vt 0.889536 0.931545
vt 0.860609 0.931545
vt 0.818486 0.931545
vt 0.831682 0.931545
vt 0.860609 0.931545
vt 0.818486 0.931545
vt 0.831682 0.931545
vt 0.860609 0.931545
vt 0.860609 0.931545
vt 0.831682 0.931545
vt 0.831682 0.931545
vt 0.860609 0.931545
vt 0.860609 0.931545
vt 0.889537 0.931545
vt 0.889536 0.931545
vn 0.9098 -0.4150 0.0000
vn -0.0000 0.0000 1.0000
vn -0.9098 -0.4150 0.0000
vn -0.4150 0.9098 0.0000
vn 0.4150 -0.9098 0.0000
vn 0.0000 0.0000 -1.0000
vn -0.4150 -0.9098 0.0000
vn 0.4150 0.9098 0.0000
vn -0.9098 0.4150 0.0000
vn 0.9098 0.4150 0.0000
s off
f 43/1/1 44/2/1 4/3/1 2/4/1
f 48/5/2 45/6/2 8/7/2 30/8/2
f 45/6/3 46/9/3 6/10/3 8/7/3
f 29/11/4 31/12/4 5/13/4 7/14/4
f 30/8/5 32/15/5 2/4/5 4/3/5
f 47/16/6 32/15/6 6/10/6 46/9/6
f 49/17/1 50/18/1 12/19/1 10/20/1
f 54/21/2 51/22/2 16/23/2 34/24/2
f 51/22/3 52/25/3 14/26/3 16/23/3
f 33/27/4 35/28/4 13/29/4 15/30/4
f 34/24/5 36/31/5 10/20/5 12/19/5
f 53/32/6 36/31/6 14/26/6 52/25/6
f 37/33/1 38/34/1 20/35/1 18/36/1
f 42/37/2 39/38/2 24/39/2 26/40/2
f 39/38/3 40/41/3 22/42/3 24/39/3
f 25/43/4 27/44/4 21/45/4 23/46/4
f 26/40/5 28/47/5 18/36/5 20/35/5
f 41/48/6 28/47/6 22/42/6 40/41/6
f 37/33/6 18/36/6 28/47/6 41/48/6
f 24/39/7 22/42/7 28/47/7 26/40/7
f 19/49/8 17/50/8 27/44/8 25/43/8
f 38/34/2 42/37/2 26/40/2 20/35/2
f 43/1/6 2/4/6 32/15/6 47/16/6
f 8/7/7 6/10/7 32/15/7 30/8/7
f 3/51/8 1/52/8 31/12/8 29/11/8
f 44/2/2 48/5/2 30/8/2 4/3/2
f 49/17/6 10/20/6 36/31/6 53/32/6
f 16/23/7 14/26/7 36/31/7 34/24/7
f 11/53/8 9/54/8 35/28/8 33/27/8
f 50/18/2 54/21/2 34/24/2 12/19/2
f 19/49/2 25/43/2 42/37/2 38/34/2
f 17/50/6 37/33/6 41/48/6 27/44/6
f 27/44/6 41/48/6 40/41/6 21/45/6
f 23/46/9 21/45/9 40/41/9 39/38/9
f 25/43/2 23/46/2 39/38/2 42/37/2
f 17/50/10 19/49/10 38/34/10 37/33/10
f 3/51/2 29/11/2 48/5/2 44/2/2
f 1/52/6 43/1/6 47/16/6 31/12/6
f 31/12/6 47/16/6 46/9/6 5/13/6
f 7/14/9 5/13/9 46/9/9 45/6/9
f 29/11/2 7/14/2 45/6/2 48/5/2
f 1/52/10 3/51/10 44/2/10 43/1/10
f 11/53/2 33/27/2 54/21/2 50/18/2
f 9/54/6 49/17/6 53/32/6 35/28/6
f 35/28/6 53/32/6 52/25/6 13/29/6
f 15/30/9 13/29/9 52/25/9 51/22/9
f 33/27/2 15/30/2 51/22/2 54/21/2
f 9/54/10 11/53/10 50/18/10 49/17/10
f 67/55/1 68/56/1 58/57/1 56/58/1
f 72/59/2 69/60/2 62/61/2 64/62/2
f 69/60/3 70/63/3 60/64/3 62/61/3
f 63/65/4 65/66/4 59/67/4 61/68/4
f 64/62/5 66/69/5 56/58/5 58/57/5
f 71/70/6 66/69/6 60/64/6 70/63/6
f 67/55/6 56/58/6 66/69/6 71/70/6
f 62/61/7 60/64/7 66/69/7 64/62/7
f 57/71/8 55/72/8 65/66/8 63/65/8
f 68/56/2 72/59/2 64/62/2 58/57/2
f 57/71/2 63/65/2 72/59/2 68/56/2
f 55/72/6 67/55/6 71/70/6 65/66/6
f 65/66/6 71/70/6 70/63/6 59/67/6
f 61/68/9 59/67/9 70/63/9 69/60/9
f 63/65/2 61/68/2 69/60/2 72/59/2
f 55/72/10 57/71/10 68/56/10 67/55/10
