# Blender v3.3.0 OBJ File: 'vfx2.blend'
# www.blender.org
o sniperSHot_Cylinder.001
v 0.000000 -0.100000 0.000000
v 0.000000 -0.100000 -1.000000
v 0.086603 -0.050000 0.000000
v 0.086603 -0.050000 -1.000000
v 0.086603 0.050000 -0.000000
v 0.086603 0.050000 -1.000000
v 0.000000 0.100000 -0.000000
v 0.000000 0.100000 -1.000000
v -0.086603 0.050000 -0.000000
v -0.086603 0.050000 -1.000000
v -0.086603 -0.050000 0.000000
v -0.086603 -0.050000 -1.000000
v 0.000000 -0.034072 -0.000774
v 0.000000 -0.034072 -0.999226
v 0.029507 -0.017036 -0.000774
v 0.029507 -0.017036 -0.999226
v 0.029507 0.017036 -0.000774
v 0.029507 0.017036 -0.999226
v 0.000000 0.034072 -0.000774
v 0.000000 0.034072 -0.999226
v -0.029507 0.017036 -0.000774
v -0.029507 0.017036 -0.999226
v -0.029507 -0.017036 -0.000774
v -0.029507 -0.017036 -0.999226
vt 0.374783 0.908001
vt 0.373117 0.908001
vt 0.373117 0.913001
vt 0.374783 0.913001
vt 0.371450 0.908001
vt 0.371450 0.913001
vt 0.369783 0.908001
vt 0.369783 0.913001
vt 0.368117 0.908001
vt 0.368117 0.913001
vt 0.369362 0.906701
vt 0.369362 0.904301
vt 0.367283 0.903101
vt 0.365205 0.904301
vt 0.365205 0.906701
vt 0.367283 0.907901
vt 0.366450 0.908001
vt 0.366450 0.913001
vt 0.364783 0.908001
vt 0.364783 0.913001
vt 0.372283 0.907901
vt 0.370205 0.906701
vt 0.370205 0.904301
vt 0.372283 0.903101
vt 0.374362 0.904301
vt 0.374362 0.906701
vt 0.105049 0.908001
vt 0.103383 0.908001
vt 0.103383 0.913001
vt 0.105049 0.913001
vt 0.101716 0.908001
vt 0.101716 0.913001
vt 0.100049 0.908001
vt 0.100049 0.913001
vt 0.098383 0.908001
vt 0.098383 0.913001
vt 0.099628 0.906701
vt 0.099628 0.904301
vt 0.097549 0.903101
vt 0.095471 0.904301
vt 0.095471 0.906701
vt 0.097549 0.907901
vt 0.096716 0.908001
vt 0.096716 0.913001
vt 0.095049 0.908001
vt 0.095049 0.913001
vt 0.102549 0.907901
vt 0.100471 0.906701
vt 0.100471 0.904301
vt 0.102549 0.903101
vt 0.104628 0.904301
vt 0.104628 0.906701
vn -0.5000 0.8660 -0.0000
vn -1.0000 -0.0000 0.0000
vn -0.5000 -0.8660 0.0000
vn 0.5000 -0.8660 0.0000
vn 0.0000 -0.0000 1.0000
vn 1.0000 -0.0000 0.0000
vn 0.5000 0.8660 -0.0000
vn 0.0000 -0.0000 -1.0000
s off
f 1/1/1 3/2/1 4/3/1 2/4/1
f 3/2/2 5/5/2 6/6/2 4/3/2
f 5/5/3 7/7/3 8/8/3 6/6/3
f 7/7/4 9/9/4 10/10/4 8/8/4
f 4/11/5 6/12/5 8/13/5 10/14/5 12/15/5 2/16/5
f 9/9/6 11/17/6 12/18/6 10/10/6
f 11/17/7 1/19/7 2/20/7 12/18/7
f 1/21/8 11/22/8 9/23/8 7/24/8 5/25/8 3/26/8
f 13/27/1 15/28/1 16/29/1 14/30/1
f 15/28/2 17/31/2 18/32/2 16/29/2
f 17/31/3 19/33/3 20/34/3 18/32/3
f 19/33/4 21/35/4 22/36/4 20/34/4
f 16/37/5 18/38/5 20/39/5 22/40/5 24/41/5 14/42/5
f 21/35/6 23/43/6 24/44/6 22/36/6
f 23/43/7 13/45/7 14/46/7 24/44/7
f 13/47/8 23/48/8 21/49/8 19/50/8 17/51/8 15/52/8
