# Blender v3.3.0 OBJ File: 'pickups.blend'
# www.blender.org
o soda_can_Cylinder
v 0.000000 -0.075000 -0.040000
v 0.000000 0.075000 -0.040000
v 0.028284 -0.075000 -0.028284
v 0.028284 0.075000 -0.028284
v 0.040000 -0.075000 0.000000
v 0.040000 0.075000 0.000000
v 0.028284 -0.075000 0.028284
v 0.028284 0.075000 0.028284
v 0.000000 -0.075000 0.040000
v 0.000000 0.075000 0.040000
v -0.028284 -0.075000 0.028284
v -0.028284 0.075000 0.028284
v -0.040000 -0.075000 0.000000
v -0.040000 0.075000 0.000000
v -0.028284 -0.075000 -0.028284
v -0.028284 0.075000 -0.028284
v 0.000000 -0.075000 -0.040000
v 0.028284 -0.075000 -0.028284
v 0.028284 0.075000 -0.028284
v 0.000000 0.075000 -0.040000
v 0.040000 -0.075000 0.000000
v 0.040000 0.075000 0.000000
v 0.028284 -0.075000 0.028284
v 0.028284 0.075000 0.028284
v 0.000000 -0.075000 0.040000
v 0.000000 0.075000 0.040000
v -0.028284 -0.075000 0.028284
v -0.028284 0.075000 0.028284
v -0.040000 -0.075000 0.000000
v -0.040000 0.075000 0.000000
v -0.028284 -0.075000 -0.028284
v -0.028284 0.075000 -0.028284
vt 0.245148 0.020806
vt 0.245148 0.302014
vt 0.187754 0.302014
vt 0.187754 0.020806
vt 0.130360 0.302014
vt 0.130360 0.020806
vt 0.072966 0.302014
vt 0.072966 0.020806
vt 0.015571 0.302014
vt 0.015571 0.020806
vt 0.474724 0.020806
vt 0.474724 0.302014
vt 0.417330 0.302014
vt 0.417330 0.020806
vt 0.359936 0.302014
vt 0.359936 0.020806
vt 0.852212 0.757861
vt 0.765050 0.793964
vt 0.728946 0.706802
vt 0.302542 0.302014
vt 0.302542 0.020806
vt 0.915905 0.714472
vt 0.894797 0.663515
vt 0.945755 0.642408
vt 0.765050 0.670699
vt 0.816108 0.670699
vt 0.852212 0.706802
vt 0.816108 0.793964
vt 0.728946 0.757861
vt 0.966862 0.663515
vt 0.966862 0.693365
vt 0.945755 0.714472
vt 0.894797 0.693365
vt 0.915905 0.642407
vn 0.0000 0.0000 -1.0000
vn 0.7071 0.0000 -0.7071
vn 1.0000 0.0000 0.0000
vn 0.7071 0.0000 0.7071
vn 0.0000 0.0000 1.0000
vn -0.7071 0.0000 0.7071
vn -1.0000 0.0000 0.0000
vn 0.0000 1.0000 0.0000
vn -0.7071 0.0000 -0.7071
vn 0.0000 -1.0000 0.0000
s 1
f 17/1/1 20/2/1 19/3/2 18/4/2
f 18/4/2 19/3/2 22/5/3 21/6/3
f 21/6/3 22/5/3 24/7/4 23/8/4
f 23/8/4 24/7/4 26/9/5 25/10/5
f 25/11/5 26/12/5 28/13/6 27/14/6
f 27/14/6 28/13/6 30/15/7 29/16/7
f 14/17/8 10/18/8 6/19/8
f 29/16/7 30/15/7 32/20/9 31/21/9
f 31/21/9 32/20/9 20/2/1 17/1/1
f 7/22/10 11/23/10 15/24/10
f 6/19/8 4/25/8 2/26/8
f 2/26/8 16/27/8 14/17/8
f 14/17/8 12/28/8 10/18/8
f 10/18/8 8/29/8 6/19/8
f 6/19/8 2/26/8 14/17/8
f 15/24/10 1/30/10 3/31/10
f 3/31/10 5/32/10 7/22/10
f 7/22/10 9/33/10 11/23/10
f 11/23/10 13/34/10 15/24/10
f 15/24/10 3/31/10 7/22/10
