# Blender v3.3.0 OBJ File: 'rocket_launcher_with_rail.blend'
# www.blender.org
o RailShot_Cube.002
v -0.016159 0.031027 -0.127645
v -0.016159 -0.031027 -0.127645
v -0.044842 0.031027 -0.127645
v -0.058940 0.022954 -0.127645
v -0.058940 -0.022954 -0.127645
v -0.044842 -0.031027 -0.127645
v -0.058940 0.022954 0.119128
v -0.044842 0.031027 0.119128
v -0.044842 -0.031027 0.119128
v -0.058940 -0.022954 0.119128
v -0.016159 -0.031027 0.086209
v -0.044842 0.031027 0.086209
v -0.058940 0.022954 0.086209
v -0.044842 -0.031027 0.086209
v -0.058940 -0.022954 0.086209
v -0.016159 -0.031027 0.119128
v -0.016159 0.031027 0.119128
v -0.016159 0.031027 0.086209
v 0.016159 0.031027 -0.127645
v 0.016159 -0.031027 -0.127645
v 0.044842 0.031027 -0.127645
v 0.058940 0.022954 -0.127645
v 0.058940 -0.022954 -0.127645
v 0.044842 -0.031027 -0.127645
v 0.058940 0.022954 0.119128
v 0.044842 0.031027 0.119128
v 0.044842 -0.031027 0.119128
v 0.058940 -0.022954 0.119128
v 0.016159 -0.031027 0.086209
v 0.044842 0.031027 0.086209
v 0.058940 0.022954 0.086209
v 0.044842 -0.031027 0.086209
v 0.058940 -0.022954 0.086209
v 0.016159 -0.031027 0.119128
v 0.016159 0.031027 0.119128
v 0.016159 0.031027 0.086209
v -0.016735 -0.016790 0.091181
v -0.016735 0.016790 0.091181
v -0.016735 -0.016790 -0.096305
v -0.016735 0.016790 -0.096305
v 0.016735 -0.016790 0.091181
v 0.016735 0.016790 0.091181
v 0.016735 -0.016790 -0.096305
v 0.016735 0.016790 -0.096305
v -0.030446 -0.007278 0.127794
v -0.030446 0.007278 0.127794
v 0.030446 -0.007278 0.127794
v 0.030446 0.007278 0.127794
v -0.034805 -0.010399 0.119158
v -0.034805 0.010399 0.119158
v 0.034805 0.010399 0.119158
v 0.034805 -0.010399 0.119158
vt 0.936982 0.598688
vt 0.983524 0.598688
vt 0.983524 0.472757
vt 0.936982 0.472757
vt 0.914106 0.489140
vt 0.914106 0.582304
vt 0.106484 0.450697
vt 0.106484 0.017574
vt 0.013320 0.017574
vt 0.013320 0.450697
vt 0.423866 0.450697
vt 0.423866 0.017574
vt 0.377325 0.017574
vt 0.377325 0.450697
vt 0.045563 0.872525
vt 0.045563 0.919067
vt 0.061947 0.941943
vt 0.155111 0.941943
vt 0.171494 0.919067
vt 0.171494 0.872525
vt 0.503161 0.450697
vt 0.480285 0.450697
vt 0.480285 0.517367
vt 0.503161 0.517367
vt 0.446742 0.450697
vt 0.446743 0.017574
vt 0.549702 0.450697
vt 0.549702 0.017574
vt 0.503161 0.017574
vt 0.549702 0.517367
vt 0.423866 0.517367
vt 0.446742 0.517367
vt 0.480285 0.017574
vt 0.377325 0.517367
vt 0.106484 0.517367
vt 0.013320 0.517367
vt 0.864575 0.017574
vt 0.864575 0.450697
vt 0.990506 0.450697
vt 0.990506 0.017574
vt 0.748864 0.471177
vt 0.748864 0.597107
vt 0.801304 0.597107
vt 0.801304 0.471177
vt 0.324884 0.450697
vt 0.324884 0.517367
vt 0.847880 0.472029
vt 0.825004 0.488412
vt 0.825004 0.581576
vt 0.847880 0.597960
vt 0.894421 0.597960
vt 0.894421 0.472029
vt 0.129979 0.450697
vt 0.223144 0.450697
vt 0.223144 0.017574
vt 0.129979 0.017574
vt 0.278343 0.450697
vt 0.324884 0.017574
vt 0.278343 0.017574
vt 0.045563 0.820085
vt 0.171494 0.820085
vt 0.171494 0.773543
vt 0.155111 0.750667
vt 0.061947 0.750667
vt 0.045563 0.773543
vt 0.648684 0.450697
vt 0.648684 0.517367
vt 0.671560 0.517367
vt 0.671560 0.450697
vt 0.255467 0.017574
vt 0.255467 0.450697
vt 0.602143 0.450697
vt 0.648684 0.017574
vt 0.602143 0.017574
vt 0.602143 0.517367
vt 0.278343 0.517367
vt 0.255467 0.517367
vt 0.671560 0.017574
vt 0.129979 0.517367
vt 0.223144 0.517367
vt 0.831033 0.017574
vt 0.705102 0.017574
vt 0.705102 0.450697
vt 0.831033 0.450697
vt 0.027146 0.602742
vt 0.095290 0.602742
vt 0.095290 0.657052
vt 0.027146 0.657052
vt 0.120621 0.619567
vt 0.120621 0.565258
vt 0.500747 0.565258
vt 0.500747 0.619567
vt 0.500747 0.644604
vt 0.500747 0.698913
vt 0.120621 0.698913
vt 0.120621 0.644604
vt 0.233719 0.894238
vt 0.210010 0.894238
vt 0.210010 0.795052
vt 0.233719 0.795052
vt 0.204926 0.779296
vt 0.238804 0.779296
vt 0.238804 0.909994
vt 0.204926 0.909994
vt 0.248676 0.787953
vt 0.248676 0.901338
vt 0.195054 0.901338
vt 0.195054 0.787953
vn -0.0000 0.0000 -1.0000
vn -1.0000 0.0000 0.0000
vn 0.0000 -1.0000 0.0000
vn -0.0000 0.0000 1.0000
vn -0.4969 0.8678 0.0000
vn -0.4969 -0.8678 0.0000
vn 0.0000 1.0000 0.0000
vn 1.0000 0.0000 0.0000
vn 0.4969 0.8678 0.0000
vn 0.4969 -0.8678 0.0000
vn -0.8927 0.0000 0.4506
vn 0.8927 0.0000 0.4506
vn 0.0000 -0.9404 0.3400
vn 0.0000 0.9404 0.3400
s off
f 3/1/1 1/2/1 2/3/1 6/4/1 5/5/1 4/6/1
f 13/7/2 4/8/2 5/9/2 15/10/2
f 14/11/3 6/12/3 2/13/3 11/14/3
f 17/15/4 8/16/4 7/17/4 10/18/4 9/19/4 16/20/4
f 12/21/5 13/22/5 7/23/5 8/24/5
f 14/11/6 15/25/6 5/26/6 6/12/6
f 18/27/7 1/28/7 3/29/7 12/21/7
f 17/30/7 18/27/7 12/21/7 8/24/7
f 9/31/6 10/32/6 15/25/6 14/11/6
f 3/29/5 4/33/5 13/22/5 12/21/5
f 9/31/3 14/11/3 11/14/3 16/34/3
f 7/35/2 13/7/2 15/10/2 10/36/2
f 1/37/8 18/38/8 11/39/8 2/40/8
f 36/41/1 29/42/1 11/43/1 18/44/1
f 29/45/3 34/46/3 16/34/3 11/14/3
f 21/47/1 22/48/1 23/49/1 24/50/1 20/51/1 19/52/1
f 31/53/8 33/54/8 23/55/8 22/56/8
f 32/57/3 29/45/3 20/58/3 24/59/3
f 35/60/4 34/61/4 27/62/4 28/63/4 25/64/4 26/65/4
f 30/66/9 26/67/9 25/68/9 31/69/9
f 32/57/10 24/59/10 23/70/10 33/71/10
f 36/72/7 30/66/7 21/73/7 19/74/7
f 35/75/7 26/67/7 30/66/7 36/72/7
f 27/76/10 32/57/10 33/71/10 28/77/10
f 21/73/9 30/66/9 31/69/9 22/78/9
f 27/76/3 34/46/3 29/45/3 32/57/3
f 25/79/8 28/80/8 33/54/8 31/53/8
f 19/81/2 20/82/2 29/83/2 36/84/2
f 17/15/4 16/20/4 34/61/4 35/60/4
f 36/72/7 18/27/7 17/30/7 35/75/7
f 39/85/1 40/86/1 44/87/1 43/88/1
f 39/89/3 43/90/3 41/91/3 37/92/3
f 44/93/7 40/94/7 38/95/7 42/96/7
f 47/97/4 48/98/4 46/99/4 45/100/4
f 45/100/11 46/99/11 50/101/11 49/102/11
f 48/98/12 47/97/12 52/103/12 51/104/12
f 47/97/13 45/100/13 49/105/13 52/106/13
f 46/99/14 48/98/14 51/107/14 50/108/14
