# Blender v3.3.0 OBJ File: 'enemies.blend'
# www.blender.org
o Cube
v 0.226910 -0.052588 -0.382914
v 0.000000 -0.053993 -0.445656
v 0.006265 -0.137673 -0.056419
v 0.029563 0.497943 -0.029689
v 0.215552 0.508710 0.165957
v 0.033439 0.414039 0.341989
v -0.152550 0.403026 0.146343
v 0.411599 -0.014956 -0.198265
v 0.460248 0.015798 0.113485
v 0.285528 -0.036336 0.315806
v 0.000000 -0.047793 0.445656
v -0.268230 -0.030979 0.313444
v -0.454908 0.030062 0.009499
v -0.391998 0.000309 -0.216617
v -0.223766 -0.045302 -0.384986
v -0.317395 0.938278 0.467769
v 0.000000 -0.177915 -1.000000
v 0.500000 -0.177875 -0.866025
v 0.913140 -0.086630 -0.450544
v 1.098708 0.048617 0.110193
v 0.912628 -0.064407 0.553221
v 0.499999 -0.177698 0.866029
v 0.000000 -0.177720 1.000000
v -0.500000 -0.177720 0.866025
v -0.877260 -0.081014 0.511534
v -1.023723 0.026493 0.024356
v -0.877260 -0.081036 -0.488466
v -0.500000 -0.177827 -0.866025
v 0.148229 0.294978 -0.200600
v 0.354929 0.113479 0.079716
v 0.217501 0.100994 -0.198584
v 0.010048 0.090694 -0.304276
v -0.088072 0.284249 -0.196195
v -0.297390 0.101018 0.024734
v -0.155424 0.091842 -0.221638
v 0.652724 -0.049415 -0.319553
v 0.821658 -0.106834 -0.542544
v 0.653887 -0.090452 -0.318400
v -0.991004 0.002477 0.133190
v -0.779734 -0.013443 0.022477
v -0.774715 0.028056 0.017852
v -0.759955 0.031523 0.021112
v -0.759955 0.221059 0.021112
v -0.685502 0.105976 -0.277308
v -0.829330 0.126291 -0.336665
v -0.570419 0.031523 0.021112
v -0.570419 0.221059 0.021112
v -0.501044 0.126291 -0.336665
v -0.549120 0.010224 -0.336665
v -0.781254 0.010224 -0.110120
v -0.781254 0.126291 0.050606
v -0.781254 0.242358 -0.110120
v -0.781254 0.010224 -0.336665
v -0.665187 -0.037852 -0.336665
v -0.781254 0.242358 -0.336665
v -0.549120 0.242358 -0.336665
v -0.549120 0.010224 -0.110120
v -0.549120 0.242358 -0.110120
v -0.549120 0.126291 0.050606
v -0.665187 0.010224 0.050606
v -0.665187 0.242358 0.050606
v -0.665187 0.290435 -0.110120
v -0.665187 -0.037852 -0.110120
v -0.665187 0.126291 0.117181
v -0.501044 0.126291 -0.110120
v -0.665187 0.290435 -0.336665
v -0.829330 0.126291 -0.110120
v -0.685502 0.146606 -0.277308
v -0.665187 0.126291 -0.513925
v -0.644872 0.105976 -0.277308
v -0.644872 0.146606 -0.277308
v -0.685502 0.146606 -0.428971
v -0.685502 0.105976 -0.428971
v -0.644872 0.105976 -0.428971
v -0.644872 0.146606 -0.428971
v -0.700339 0.161442 -0.464102
v -0.630036 0.091140 -0.464102
v -0.700339 0.091140 -0.464102
v -0.630036 0.161442 -0.464102
v -0.665187 0.126291 -0.280765
v 0.023328 0.162137 -0.084376
v 0.023328 0.202008 -0.081710
v -0.023596 0.146545 -0.128633
v -0.023596 0.202008 -0.128633
v 0.070251 0.146545 -0.128633
v 0.070251 0.202008 -0.128633
v 0.023328 0.130952 -0.182803
v 0.023328 0.202008 -0.175557
v 0.023328 0.234698 -0.128633
v 0.040019 0.146536 -0.144705
v 0.045941 0.046801 -0.151247
v 0.040019 0.155546 -0.112562
v 0.045941 0.046801 -0.106020
v 0.006637 0.146536 -0.144705
v 0.000714 0.046801 -0.151247
v 0.006637 0.155546 -0.112562
v 0.000714 0.046801 -0.106020
v 0.097738 0.093232 -0.118042
v 0.030055 0.132828 -0.125603
v 0.095689 0.115884 -0.199071
v 0.031137 0.132209 -0.136644
v 0.104431 0.115145 -0.118459
v 0.036756 0.141690 -0.125443
v 0.075953 0.115284 -0.204324
v 0.037838 0.141071 -0.136485
v 0.096550 0.094847 -0.210019
v 0.079893 0.096458 -0.140278
v 0.086589 0.114820 -0.139406
v 0.076900 0.096666 -0.210571
v 0.070713 0.099226 -0.247793
v 0.097608 0.096577 -0.250784
v 0.101088 0.127558 -0.237925
v 0.067428 0.125012 -0.238505
v -0.055974 0.093232 -0.118042
v 0.011708 0.132828 -0.125603
v -0.053926 0.115884 -0.199071
v 0.010626 0.132209 -0.136644
v -0.062668 0.115145 -0.118459
v 0.005008 0.141690 -0.125443
v -0.034190 0.115284 -0.204324
v 0.003925 0.141071 -0.136485
v -0.054787 0.094847 -0.210019
v -0.038130 0.096458 -0.140278
v -0.044825 0.114820 -0.139406
v -0.035137 0.096666 -0.210571
v -0.028950 0.099226 -0.247793
v -0.055845 0.096577 -0.250784
v -0.059324 0.127558 -0.237925
v -0.025664 0.125012 -0.238505
v 0.570419 0.031523 0.021112
v 0.570419 0.221059 0.021112
v 0.644872 0.105976 -0.277308
v 0.501044 0.126291 -0.336665
v 0.759955 0.031523 0.021112
v 0.759955 0.221059 0.021112
v 0.829330 0.126291 -0.336665
v 0.781254 0.010224 -0.336665
v 0.549120 0.010224 -0.110120
v 0.549120 0.126291 0.050606
v 0.549120 0.242358 -0.110120
v 0.549120 0.010224 -0.336665
v 0.665187 -0.037852 -0.336665
v 0.549120 0.242358 -0.336665
v 0.781254 0.242358 -0.336665
v 0.781254 0.010224 -0.110120
v 0.781254 0.242358 -0.110120
v 0.781254 0.126291 0.050606
v 0.665187 0.010224 0.050606
v 0.665187 0.242358 0.050606
v 0.665187 0.290435 -0.110120
v 0.665187 -0.037852 -0.110120
v 0.665187 0.126291 0.117181
v 0.829330 0.126291 -0.110120
v 0.665187 0.290435 -0.336665
v 0.501044 0.126291 -0.110120
v 0.644872 0.146606 -0.277308
v 0.665187 0.126291 -0.513925
v 0.685502 0.105976 -0.277308
v 0.685502 0.146606 -0.277308
v 0.644872 0.146606 -0.428971
v 0.644872 0.105976 -0.428971
v 0.685502 0.105976 -0.428971
v 0.685502 0.146606 -0.428971
v 0.630035 0.161442 -0.464102
v 0.700338 0.091140 -0.464102
v 0.630035 0.091140 -0.464102
v 0.700338 0.161442 -0.464102
v 0.665187 0.126291 -0.280765
v 0.000000 -0.053993 -0.445656
v 0.226910 -0.052588 -0.382914
v 0.411599 -0.014956 -0.198265
v 0.000000 -0.177915 -1.000000
v 0.500000 -0.177875 -0.866025
v 0.460248 0.015798 0.113485
v 0.652724 -0.049415 -0.319553
v 0.652724 -0.049415 -0.319553
v 0.913140 -0.086630 -0.450544
v 0.913140 -0.086630 -0.450544
v 1.098708 0.048617 0.110193
v 0.912628 -0.064407 0.553221
v 0.285528 -0.036336 0.315806
v 0.000000 -0.047793 0.445656
v 0.499999 -0.177698 0.866029
v -0.268230 -0.030979 0.313444
v 0.000000 -0.177720 1.000000
v -0.454908 0.030062 0.009499
v -0.500000 -0.177720 0.866025
v -0.877260 -0.081014 0.511534
v -0.774715 0.028056 0.017852
v -0.774715 0.028056 0.017852
v -0.779734 -0.013443 0.022477
v -0.779734 -0.013443 0.022477
v -0.391998 0.000309 -0.216617
v -0.223766 -0.045302 -0.384986
v -1.023723 0.026493 0.024356
v -1.023723 0.026493 0.024356
v -0.877260 -0.081036 -0.488466
v -0.500000 -0.177827 -0.866025
v 0.217501 0.100994 -0.198584
v 0.010048 0.090694 -0.304276
v -0.155424 0.091842 -0.221638
v -0.297390 0.101018 0.024734
v -0.297390 0.101018 0.024734
v -0.088072 0.284249 -0.196195
v 0.354929 0.113479 0.079716
v 0.354929 0.113479 0.079716
v 0.148229 0.294978 -0.200600
v 0.821658 -0.106834 -0.542544
v 0.821658 -0.106834 -0.542544
v 0.653887 -0.090452 -0.318400
v 0.653887 -0.090452 -0.318400
v -0.991004 0.002477 0.133190
v -0.991004 0.002477 0.133190
v -0.781254 0.242358 -0.336665
v -0.829330 0.126291 -0.336665
v -0.781254 0.010224 -0.336665
v -0.549120 0.242358 -0.336665
v -0.501044 0.126291 -0.336665
v -0.549120 0.010224 -0.336665
v -0.665187 -0.037852 -0.336665
v -0.665187 0.290435 -0.336665
v -0.685502 0.146606 -0.428971
v -0.644872 0.146606 -0.428971
v -0.644872 0.105976 -0.428971
v -0.685502 0.105976 -0.428971
v 0.549120 0.242358 -0.336665
v 0.501044 0.126291 -0.336665
v 0.549120 0.010224 -0.336665
v 0.781254 0.242358 -0.336665
v 0.829330 0.126291 -0.336665
v 0.781254 0.010224 -0.336665
v 0.665187 -0.037852 -0.336665
v 0.665187 0.290435 -0.336665
v 0.644872 0.146606 -0.428971
v 0.685502 0.146606 -0.428971
v 0.685502 0.105976 -0.428971
v 0.644872 0.105976 -0.428971
vt 0.834266 0.968996
vt 0.774448 0.842943
vt 0.822366 0.799454
vt 0.879627 0.833722
vt 0.917732 0.892488
vt 0.157725 0.949895
vt 0.205149 0.879632
vt 0.303915 0.908620
vt 0.241542 0.986610
vt 0.941211 0.871159
vt 0.839272 0.723567
vt 0.995781 0.732939
vt 0.344439 0.994557
vt 0.954963 0.618965
vt 0.446394 0.906497
vt 0.472968 0.964436
vt 0.798661 0.670536
vt 0.857001 0.533519
vt 0.729844 0.636043
vt 0.735563 0.496525
vt 0.569508 0.909268
vt 0.991736 0.416219
vt 0.875515 0.493618
vt 0.811944 0.456815
vt 0.897014 0.331698
vt 0.525837 0.703567
vt 0.670648 0.831275
vt 0.723289 0.460916
vt 0.770699 0.304767
vt 0.026974 0.460814
vt 0.224521 0.487522
vt 0.021149 0.586509
vt 0.681512 0.394504
vt 0.676175 0.334299
vt 0.245868 0.612022
vt 0.649064 0.342743
vt 0.685246 0.504724
vt 0.561685 0.443580
vt 0.770925 0.249381
vt 0.722021 0.145683
vt 0.985881 0.144881
vt 0.921517 0.252251
vt 0.672205 0.562710
vt 0.532747 0.573427
vt 0.016894 0.729523
vt 0.086893 0.704795
vt 0.147717 0.821030
vt 0.044449 0.814134
vt 0.320355 0.714624
vt 0.477661 0.434638
vt 0.689934 0.616776
vt 0.573715 0.693583
vt 0.089070 0.892218
vt 0.709766 0.993811
vt 0.717929 0.854744
vt 0.425270 0.732506
vt 0.216652 0.217903
vt 0.366360 0.141610
vt 0.384614 0.223734
vt 0.385447 0.286722
vt 0.326647 0.324653
vt 0.255829 0.431681
vt 0.167415 0.424006
vt 0.087326 0.373591
vt 0.030882 0.300938
vt 0.014818 0.210659
vt 0.040353 0.121410
vt 0.066046 0.071507
vt 0.124712 0.066169
vt 0.230516 0.042023
vt 0.312331 0.076579
vt 0.298321 0.826573
vt 0.222054 0.780406
vt 0.909539 0.119164
vt 0.821158 0.128116
vt 0.735927 0.007776
vt 0.981771 0.007028
vt 0.834673 0.288012
vt 0.335068 0.392560
vt 0.335068 0.392560
vt 0.326647 0.324653
vt 0.336556 0.329780
vt 0.385447 0.286722
vt 0.336556 0.329780
vt 0.326647 0.324653
vt 0.124712 0.066169
vt 0.066046 0.071507
vt 0.119298 0.056826
vt 0.147913 0.016101
vt 0.124712 0.066169
vt 0.119298 0.056826
vt 0.147913 0.016101
vt 0.397672 0.015745
vt 0.410176 0.015745
vt 0.410176 0.062419
vt 0.397672 0.062419
vt 0.524712 0.089105
vt 0.524712 0.127618
vt 0.492725 0.131561
vt 0.478473 0.098129
vt 0.452382 0.164767
vt 0.489829 0.165419
vt 0.491531 0.199480
vt 0.524712 0.009865
vt 0.524712 0.050351
vt 0.481710 0.062148
vt 0.460616 0.033585
vt 0.524712 0.166061
vt 0.524712 0.204693
vt 0.346401 0.050788
vt 0.346401 0.031949
vt 0.355386 0.041366
vt 0.588394 0.086604
vt 0.588394 0.125776
vt 0.524712 0.284217
vt 0.524712 0.326184
vt 0.454556 0.299523
vt 0.477572 0.270521
vt 0.588394 0.287390
vt 0.588394 0.328424
vt 0.524712 0.244143
vt 0.588394 0.205820
vt 0.588394 0.246432
vt 0.453838 0.209963
vt 0.413772 0.203930
vt 0.415234 0.124263
vt 0.455469 0.119711
vt 0.588394 0.165450
vt 0.588394 0.048240
vt 0.588394 0.010680
vt 0.475615 0.233208
vt 0.364757 0.031949
vt 0.334806 0.021367
vt 0.378813 0.021367
vt 0.435184 0.015745
vt 0.447688 0.015745
vt 0.447688 0.062419
vt 0.435184 0.062419
vt 0.422680 0.015745
vt 0.422680 0.062419
vt 0.364757 0.050788
vt 0.378813 0.061372
vt 0.334806 0.061372
vt 0.588394 0.165450
vt 0.588394 0.125776
vt 0.637221 0.143022
vt 0.588394 0.086604
vt 0.637221 0.100310
vt 0.588394 0.048240
vt 0.637221 0.058903
vt 0.588394 0.010680
vt 0.637221 0.019624
vt 0.588394 0.328424
vt 0.588394 0.287390
vt 0.637221 0.319128
vt 0.588394 0.246432
vt 0.637221 0.275283
vt 0.588394 0.205820
vt 0.637221 0.231056
vt 0.637221 0.186821
vt 0.634813 0.757750
vt 0.665910 0.780616
vt 0.685538 0.735560
vt 0.661193 0.701977
vt 0.716890 0.672454
vt 0.716890 0.720670
vt 0.685538 0.735560
vt 0.661193 0.701977
vt 0.659075 0.679335
vt 0.658007 0.667657
vt 0.669684 0.668725
vt 0.669684 0.679335
vt 0.666639 0.939729
vt 0.627189 0.939729
vt 0.627189 0.925044
vt 0.666639 0.925044
vt 0.716890 0.763447
vt 0.627189 0.910220
vt 0.666639 0.910220
vt 0.666639 0.969005
vt 0.627189 0.969005
vt 0.627189 0.954759
vt 0.666639 0.954759
vt 0.757046 0.727032
vt 0.757046 0.699253
vt 0.741445 0.699253
vt 0.741445 0.727032
vt 0.804740 0.727032
vt 0.804740 0.699253
vt 0.790330 0.699253
vt 0.790330 0.727032
vt 0.772590 0.699253
vt 0.772590 0.727032
vt 0.757046 0.764934
vt 0.772590 0.764934
vt 0.790330 0.764934
vt 0.804740 0.764934
vt 0.772590 0.785780
vt 0.790330 0.785780
vt 0.741445 0.764934
vt 0.757046 0.785780
vt 0.757046 0.805758
vt 0.772590 0.805758
vt 0.804740 0.785780
vt 0.741445 0.785780
vt 0.757046 0.727032
vt 0.741445 0.727032
vt 0.741445 0.699253
vt 0.757046 0.699253
vt 0.804740 0.727032
vt 0.790330 0.727032
vt 0.790330 0.699253
vt 0.804740 0.699253
vt 0.772590 0.727032
vt 0.772590 0.699253
vt 0.772590 0.764934
vt 0.757046 0.764934
vt 0.804740 0.764934
vt 0.790330 0.764934
vt 0.790330 0.785780
vt 0.772590 0.785780
vt 0.741445 0.764934
vt 0.757046 0.785780
vt 0.772590 0.805758
vt 0.757046 0.805758
vt 0.804740 0.785780
vt 0.741445 0.785780
vt 0.397672 0.015745
vt 0.410176 0.015745
vt 0.410176 0.062419
vt 0.397672 0.062419
vt 0.524712 0.089105
vt 0.524712 0.127618
vt 0.492725 0.131561
vt 0.478473 0.098129
vt 0.452382 0.164767
vt 0.489829 0.165419
vt 0.491531 0.199480
vt 0.524712 0.009865
vt 0.524712 0.050351
vt 0.481710 0.062148
vt 0.460616 0.033585
vt 0.524712 0.166061
vt 0.524712 0.204693
vt 0.346401 0.050788
vt 0.346401 0.031949
vt 0.355386 0.041366
vt 0.588394 0.086604
vt 0.588394 0.125776
vt 0.524712 0.284217
vt 0.524712 0.326184
vt 0.454556 0.299523
vt 0.477572 0.270521
vt 0.588394 0.287390
vt 0.588394 0.328424
vt 0.524712 0.244143
vt 0.588394 0.205820
vt 0.588394 0.246432
vt 0.453838 0.209963
vt 0.413772 0.203930
vt 0.415234 0.124263
vt 0.455469 0.119711
vt 0.588394 0.165450
vt 0.588394 0.048240
vt 0.588394 0.010680
vt 0.475615 0.233208
vt 0.364757 0.031949
vt 0.334806 0.021367
vt 0.378813 0.021367
vt 0.435184 0.015745
vt 0.447688 0.015745
vt 0.447688 0.062419
vt 0.435184 0.062419
vt 0.422680 0.015745
vt 0.422680 0.062419
vt 0.364757 0.050788
vt 0.378813 0.061372
vt 0.334806 0.061372
vt 0.588394 0.165450
vt 0.588394 0.125776
vt 0.637221 0.143022
vt 0.588394 0.086604
vt 0.637221 0.100310
vt 0.588394 0.048240
vt 0.637221 0.058903
vt 0.588394 0.010680
vt 0.637221 0.019624
vt 0.588394 0.328424
vt 0.588394 0.287390
vt 0.637221 0.319128
vt 0.588394 0.246432
vt 0.637221 0.275283
vt 0.588394 0.205820
vt 0.637221 0.231056
vt 0.637221 0.186821
vt 0.407199 0.163949
vt 0.407199 0.163949
vn 0.0417 0.9732 -0.2262
vn 0.0412 0.9731 -0.2265
vn 0.0559 0.9834 -0.1724
vn 0.0113 0.9788 -0.2045
vn 0.0255 0.9720 -0.2338
vn 0.0042 0.7499 -0.6615
vn 0.0185 0.7491 -0.6622
vn 0.4238 0.7536 -0.5025
vn 0.3020 0.7166 -0.6287
vn -0.0248 0.9799 -0.1978
vn -0.0244 0.9975 0.0669
vn -0.0372 0.9993 0.0075
vn 0.5301 0.7627 -0.3706
vn -0.0505 0.9693 0.2407
vn 0.7598 0.6289 0.1646
vn 0.5653 0.8006 0.1985
vn -0.0041 0.9704 0.2413
vn 0.0094 0.9711 0.2384
vn 0.0011 0.9734 0.2290
vn 0.0017 0.9734 0.2290
vn 0.5854 0.3187 0.7455
vn -0.0256 0.9720 0.2336
vn -0.0336 0.9719 0.2329
vn 0.1378 0.1544 0.9784
vn -0.0255 0.2207 0.9750
vn -0.0058 0.9983 0.0582
vn -0.0022 0.9736 0.2282
vn -0.6556 0.4274 0.6225
vn -0.0181 0.9998 -0.0046
vn -0.0005 0.9765 0.2156
vn -0.9584 0.2849 0.0164
vn -0.0370 0.9784 -0.2033
vn -0.0185 0.9756 -0.2188
vn -0.0240 0.9721 -0.2333
vn -0.0186 0.9988 -0.0444
vn -0.0179 0.9990 -0.0414
vn -0.0184 0.9989 -0.0438
vn -0.0300 0.9689 -0.2456
vn -0.0306 0.9690 -0.2450
vn -0.4048 0.9134 0.0435
vn -0.6517 0.7575 0.0387
vn -0.2940 0.8184 -0.4937
vn -0.3527 0.8725 -0.3383
vn -0.0810 0.7610 -0.6437
vn -0.5098 0.7309 0.4538
vn 0.0039 0.9747 -0.2236
vn -0.2592 0.7651 -0.5894
vn 0.7959 0.5984 0.0916
vn 0.0027 -0.9999 0.0097
vn -0.0000 -0.9991 0.0426
vn 0.0516 -0.9950 0.0851
vn 0.1123 -0.9857 0.1258
vn 0.1224 -0.9801 0.1565
vn 0.1652 -0.9862 -0.0084
vn 0.1799 -0.9721 -0.1507
vn 0.0815 -0.9929 -0.0867
vn 0.0001 -0.9993 -0.0379
vn -0.0646 -0.9948 -0.0787
vn -0.1532 -0.9777 -0.1434
vn -0.1605 -0.9729 -0.1664
vn -0.1591 -0.9873 0.0034
vn -0.1360 -0.9803 0.1430
vn -0.0589 -0.9945 0.0862
vn 0.4582 0.6224 -0.6345
vn -0.5230 0.6480 -0.5537
vn 0.0545 -0.8075 -0.5873
vn -0.0210 0.9982 -0.0560
vn 0.1147 -0.9737 0.1969
vn -0.4534 -0.0379 -0.8905
vn 0.8013 0.0395 0.5969
vn -0.4662 -0.0421 -0.8837
vn -0.1583 -0.9745 0.1591
vn 0.0253 0.1077 0.9939
vn 0.7071 -0.7071 0.0000
vn 0.7071 0.7071 0.0000
vn 0.9921 -0.0000 0.1255
vn 0.7012 0.7012 0.1286
vn 0.6216 0.6216 0.4768
vn 0.7783 -0.0000 0.6278
vn -0.0000 -0.0000 1.0000
vn -0.0000 0.7783 0.6278
vn -0.6216 0.6216 0.4768
vn -0.0000 -0.9921 0.1255
vn 0.7012 -0.7012 0.1286
vn 0.6216 -0.6216 0.4768
vn -0.0000 -0.7783 0.6278
vn -0.0000 0.9921 0.1255
vn -0.7012 0.7012 0.1286
vn -0.7037 -0.7037 -0.0985
vn -0.7037 0.7037 -0.0985
vn 0.0000 0.0000 -1.0000
vn 1.0000 -0.0000 0.0000
vn -0.7012 -0.7012 0.1286
vn -0.6216 -0.6216 0.4768
vn -0.7071 -0.7071 0.0000
vn -0.0000 -1.0000 0.0000
vn -0.9921 -0.0000 0.1255
vn -0.7071 0.7071 0.0000
vn -1.0000 -0.0000 0.0000
vn -0.7783 -0.0000 0.6278
vn -0.0000 1.0000 0.0000
vn 0.7037 0.7037 -0.0985
vn -0.6071 0.6071 0.5128
vn 0.6071 0.6071 0.5128
vn 0.7037 -0.7037 -0.0985
vn 0.6071 -0.6071 0.5128
vn -0.6071 -0.6071 0.5128
vn 0.0000 -0.3224 -0.9466
vn -0.2280 -0.2280 -0.9466
vn -0.3224 0.0000 -0.9466
vn -0.2280 0.2280 -0.9466
vn 0.0000 0.3224 -0.9466
vn 0.2280 0.2280 -0.9466
vn 0.3224 0.0000 -0.9466
vn 0.2280 -0.2280 -0.9466
vn 0.0000 -0.4478 0.8941
vn 0.0000 0.3818 0.9243
vn -0.9174 0.3976 0.0171
vn -0.8119 -0.5744 0.1040
vn 0.0000 -0.6756 -0.7372
vn 0.0000 0.4387 -0.8986
vn 0.9174 0.3976 0.0171
vn 0.8119 -0.5744 0.1040
vn -0.7554 -0.0852 0.6497
vn -0.7009 -0.0860 0.7081
vn -0.7058 -0.0827 -0.7036
vn -0.6412 -0.0826 -0.7630
vn 0.7058 -0.0827 -0.7036
vn 0.6412 -0.0826 -0.7630
vn 0.7009 -0.0860 0.7081
vn 0.7554 -0.0852 0.6497
vn 0.3935 -0.6652 0.6346
vn -0.4085 -0.5149 0.7536
vn -0.4811 -0.6548 -0.5829
vn -0.6143 -0.7767 -0.1392
vn 0.2360 0.5878 -0.7738
vn -0.1405 0.9098 -0.3905
vn 0.2257 0.6866 0.6911
vn 0.6886 0.4852 0.5389
vn 0.6213 -0.7835 -0.0042
vn 0.7283 0.6788 0.0940
vn -0.7345 0.6432 0.2166
vn -0.7062 -0.7043 0.0722
vn 0.6112 0.7227 -0.3227
vn -0.7023 0.6417 -0.3083
vn 0.5101 -0.4844 -0.7107
vn -0.6278 -0.4372 -0.6440
vn -0.3935 -0.6652 0.6346
vn 0.6143 -0.7767 -0.1392
vn 0.4811 -0.6548 -0.5829
vn 0.4085 -0.5149 0.7536
vn 0.1405 0.9098 -0.3905
vn -0.2360 0.5878 -0.7738
vn -0.6886 0.4852 0.5389
vn -0.2257 0.6866 0.6911
vn -0.7283 0.6788 0.0940
vn -0.6213 -0.7835 -0.0042
vn 0.7062 -0.7043 0.0722
vn 0.7345 0.6432 0.2166
vn 0.7023 0.6417 -0.3083
vn -0.6112 0.7227 -0.3227
vn -0.5101 -0.4844 -0.7107
vn 0.6278 -0.4372 -0.6440
s 1
f 173/1/1 1/2/2 171/3/3 175/4/4 208/5/5
f 169/6/6 200/7/7 199/8/8 170/9/9
f 177/10/10 175/4/4 9/11/11 179/12/12
f 170/9/9 199/8/8 8/13/13
f 179/12/12 9/11/11 180/14/14
f 8/13/13 199/8/8 205/15/15 174/16/16
f 180/14/14 9/11/11 181/17/17 183/18/18
f 183/18/18 181/17/17 182/19/19 185/20/20
f 174/16/16 205/15/15 10/21/21
f 185/22/20 182/23/19 12/24/22 187/25/23
f 10/21/21 6/26/24 11/27/25
f 187/25/23 12/24/22 186/28/26 188/29/27
f 11/30/25 6/31/24 184/32/28
f 188/29/27 186/28/26 190/33/29 212/34/30
f 184/32/28 6/31/24 7/35/31
f 195/36/32 190/33/29 193/37/33 197/38/34
f 35/39/35 203/40/36 30/41/36 31/42/37
f 197/38/34 193/37/33 194/43/38 198/44/39
f 13/45/40 202/46/41 201/47/42 14/48/43
f 4/49/44 7/35/31 16/50/45
f 198/44/39 194/43/38 2/51/46 172/52/46
f 14/48/43 201/47/42 15/53/47
f 172/54/46 2/55/46 1/2/2 173/1/1
f 15/53/47 201/47/42 200/7/7 169/6/6
f 6/26/24 5/56/48 16/50/45
f 7/35/31 6/31/24 16/50/45
f 5/56/48 4/49/44 16/50/45
f 3/57/49 17/58/50 18/59/51
f 3/57/49 18/59/51 209/60/52 210/61/53
f 3/57/49 210/61/53 20/62/54
f 3/57/49 20/62/54 21/63/55
f 3/57/49 21/63/55 22/64/56
f 3/57/49 22/64/56 23/65/57
f 3/57/49 23/65/57 24/66/58
f 3/57/49 24/66/58 25/67/59
f 25/67/59 213/68/60 192/69/61
f 3/57/49 192/69/61 27/70/62
f 3/57/49 27/70/62 28/71/63
f 3/57/49 28/71/63 17/58/50
f 207/72/64 4/49/44 5/56/48
f 204/73/65 202/46/41 7/35/31 4/49/44
f 207/72/64 204/73/65 4/49/44
f 33/74/66 29/75/66 206/76/66 34/77/66
f 10/21/21 205/15/15 5/56/48 6/26/24
f 202/46/41 13/45/40 184/32/28
f 32/78/67 35/39/35 31/42/37
f 9/11/11 175/4/4 171/3/3
f 20/62/54 210/61/53 178/79/68
f 19/80/69 211/81/69 176/82/69
f 37/83/70 36/84/70 38/85/70
f 3/57/49 25/67/59 192/69/61
f 191/86/71 39/87/71 189/88/71
f 27/70/62 192/69/61 196/89/72
f 40/90/73 41/91/73 26/92/73
f 193/37/33 190/33/29 186/28/26
f 224/93/74 223/94/75 71/95/75 70/96/74
f 65/97/76 58/98/77 47/99/78 59/100/79
f 64/101/80 61/102/81 43/103/82
f 63/104/83 57/105/84 46/106/85 60/107/86
f 62/108/87 52/109/88 43/103/82 61/102/81
f 58/98/77 62/108/87 61/102/81 47/99/78
f 78/110/89 76/111/90 69/112/91
f 58/98/77 65/97/76 218/113/92 217/114/75
f 50/115/93 63/116/83 60/117/86 42/118/94
f 63/116/83 50/115/93 216/119/95 220/120/96
f 67/121/97 52/109/88 214/122/98 215/123/99
f 64/101/80 51/124/100 42/125/94
f 46/126/85 59/127/79 64/101/80
f 47/99/78 61/102/81 64/101/80
f 57/105/84 65/97/76 59/100/79 46/106/85
f 52/109/88 62/108/87 221/128/101 214/122/98
f 65/97/76 57/105/84 219/129/74 218/113/92
f 57/105/84 63/104/83 220/130/96 219/129/74
f 50/115/93 67/121/97 215/123/99 216/119/95
f 62/108/87 58/98/77 217/114/75 221/128/101
f 42/118/94 51/131/100 67/121/97 50/115/93
f 51/131/100 43/103/82 52/109/88 67/121/97
f 79/132/102 76/111/90 72/133/103 75/134/104
f 225/135/95 224/136/74 70/137/74 44/138/95
f 223/94/75 222/139/98 68/140/98 71/95/75
f 78/110/89 77/141/105 74/142/106 73/143/107
f 44/138/95 68/140/98 222/139/98 225/135/95
f 77/141/105 79/132/102 75/134/104 74/142/106
f 69/112/91 79/132/102 77/141/105
f 69/112/91 77/141/105 78/110/89
f 69/112/91 76/111/90 79/132/102
f 73/143/107 72/133/103 76/111/90 78/110/89
f 66/144/108 56/145/109 80/146/91
f 56/145/109 48/147/110 80/148/91
f 48/147/110 49/149/111 80/150/91
f 49/149/111 54/151/112 80/152/91
f 54/153/112 53/154/113 80/155/91
f 53/154/113 45/156/114 80/157/91
f 45/156/114 55/158/115 80/159/91
f 55/158/115 66/144/108 80/160/91
f 81/161/116 82/162/117 84/163/118 83/164/119
f 87/165/120 88/166/121 86/167/122
f 205/15/15 207/72/64 5/56/48
f 85/168/123 86/167/122 82/162/117 81/161/116
f 83/169/119 87/170/120 85/171/123 81/172/116
f 90/173/124 91/174/125 93/175/126 92/176/127
f 88/166/121 84/163/118 89/177/101
f 84/163/118 82/162/117 89/177/101
f 82/162/117 86/167/122 89/177/101
f 86/167/122 88/166/121 89/177/101
f 92/176/127 93/175/126 97/178/128 96/179/129
f 96/180/129 97/181/128 95/182/130 94/183/131
f 94/183/131 95/182/130 91/174/125 90/173/124
f 98/184/132 99/185/133 101/186/134 107/187/135
f 107/188/135 101/189/134 105/190/136 108/191/137
f 108/191/137 105/190/136 103/192/138 102/193/139
f 102/193/139 103/192/138 99/185/133 98/184/132
f 102/193/139 98/184/132 106/194/140 100/195/141
f 107/188/135 108/191/137 104/196/142 109/197/143
f 108/191/137 102/193/139 100/195/141 104/196/142
f 104/196/142 100/195/141 112/198/144 113/199/145
f 98/184/132 107/187/135 109/200/143 106/194/140
f 111/201/146 110/202/147 113/203/145 112/198/144
f 100/195/141 106/194/140 111/201/146 112/198/144
f 109/197/143 104/196/142 113/199/145 110/204/147
f 106/194/140 109/200/143 110/205/147 111/201/146
f 114/206/148 123/207/149 117/208/150 115/209/151
f 123/210/149 124/211/152 121/212/153 117/213/150
f 124/211/152 118/214/154 119/215/155 121/212/153
f 118/214/154 114/206/148 115/209/151 119/215/155
f 118/214/154 116/216/156 122/217/157 114/206/148
f 123/210/149 125/218/158 120/219/159 124/211/152
f 124/211/152 120/219/159 116/216/156 118/214/154
f 120/219/159 129/220/160 128/221/161 116/216/156
f 114/206/148 122/217/157 125/222/158 123/207/149
f 127/223/162 128/221/161 129/224/160 126/225/163
f 116/216/156 128/221/161 127/223/162 122/217/157
f 125/218/158 126/226/163 129/220/160 120/219/159
f 122/217/157 127/223/162 126/227/163 125/222/158
f 236/228/74 235/229/75 159/230/75 158/231/74
f 153/232/76 146/233/77 135/234/78 147/235/79
f 152/236/80 149/237/81 131/238/82
f 151/239/83 145/240/84 134/241/85 148/242/86
f 150/243/87 140/244/88 131/238/82 149/237/81
f 146/233/77 150/243/87 149/237/81 135/234/78
f 166/245/89 164/246/90 157/247/91
f 146/233/77 153/232/76 230/248/92 229/249/75
f 138/250/93 151/251/83 148/252/86 130/253/94
f 151/251/83 138/250/93 228/254/95 232/255/96
f 155/256/97 140/244/88 226/257/98 227/258/99
f 152/236/80 139/259/100 130/260/94
f 134/261/85 147/262/79 152/236/80
f 135/234/78 149/237/81 152/236/80
f 145/240/84 153/232/76 147/235/79 134/241/85
f 140/244/88 150/243/87 233/263/101 226/257/98
f 153/232/76 145/240/84 231/264/74 230/248/92
f 145/240/84 151/239/83 232/265/96 231/264/74
f 138/250/93 155/256/97 227/258/99 228/254/95
f 150/243/87 146/233/77 229/249/75 233/263/101
f 130/253/94 139/266/100 155/256/97 138/250/93
f 139/266/100 131/238/82 140/244/88 155/256/97
f 167/267/102 164/246/90 160/268/103 163/269/104
f 237/270/95 236/271/74 158/272/74 132/273/95
f 235/229/75 234/274/98 156/275/98 159/230/75
f 166/245/89 165/276/105 162/277/106 161/278/107
f 132/273/95 156/275/98 234/274/98 237/270/95
f 165/276/105 167/267/102 163/269/104 162/277/106
f 157/247/91 167/267/102 165/276/105
f 157/247/91 165/276/105 166/245/89
f 157/247/91 164/246/90 167/267/102
f 161/278/107 160/268/103 164/246/90 166/245/89
f 154/279/108 144/280/109 168/281/91
f 144/280/109 136/282/110 168/283/91
f 136/282/110 137/284/111 168/285/91
f 137/284/111 142/286/112 168/287/91
f 142/288/112 141/289/113 168/290/91
f 141/289/113 133/291/114 168/292/91
f 133/291/114 143/293/115 168/294/91
f 143/293/115 154/279/108 168/295/91
f 88/166/121 87/165/120 84/163/118
f 85/168/123 87/165/120 86/167/122
f 87/165/120 83/164/119 84/163/118
f 202/46/41 184/32/28 7/35/31
f 139/259/100 152/236/80 131/238/82
f 59/127/79 47/99/78 64/101/80
f 147/262/79 135/234/78 152/236/80
f 148/296/86 134/261/85 152/236/80
f 148/296/86 152/236/80 130/260/94
f 51/124/100 64/101/80 43/103/82
f 60/297/86 46/126/85 64/101/80
f 60/297/86 64/101/80 42/125/94
