# Blender v3.3.0 OBJ File: 'rocket_launcher_with_rail.blend'
# www.blender.org
o RocketLauncher_Cylinder
v -0.040635 0.030149 -0.253979
v -0.016832 0.053953 -0.253979
v 0.016832 0.053953 -0.253979
v 0.040635 0.030149 -0.253979
v 0.040635 -0.003514 -0.253979
v 0.016832 -0.027317 -0.253979
v -0.016832 -0.027317 -0.253979
v -0.040635 -0.003514 -0.253979
v -0.076179 0.044872 -0.253979
v -0.031555 0.089497 -0.253979
v 0.031555 0.089497 -0.253979
v 0.076179 0.044872 -0.253979
v 0.076179 -0.018237 -0.253979
v 0.031555 -0.062862 -0.253979
v -0.031555 -0.062862 -0.253979
v -0.076179 -0.018237 -0.253979
v -0.040635 0.030149 -0.195535
v -0.016832 0.053953 -0.195535
v 0.016832 0.053953 -0.195535
v 0.040635 0.030149 -0.195535
v 0.040635 -0.003514 -0.195535
v 0.016832 -0.027317 -0.195535
v -0.016832 -0.027317 -0.195535
v -0.040635 -0.003514 -0.195535
v -0.031555 0.089497 0.093614
v -0.076179 0.044872 0.093614
v 0.031555 0.089497 0.093614
v 0.076179 0.044872 0.093614
v 0.076179 -0.018237 0.093614
v 0.031555 -0.062862 0.093614
v -0.031555 -0.062862 0.093614
v -0.076179 -0.018237 0.093614
v -0.015987 0.051914 0.226598
v -0.038597 0.029305 0.226598
v 0.015987 0.051914 0.226598
v 0.038597 0.029305 0.226598
v 0.038597 -0.002670 0.226598
v 0.015987 -0.025279 0.226598
v -0.015987 -0.025279 0.226598
v -0.038597 -0.002670 0.226598
v 0.011458 0.089533 0.032713
v 0.007210 0.095295 0.029574
v -0.007210 0.095295 0.029574
v -0.011458 0.089533 0.032713
v -0.011458 0.089533 -0.060117
v -0.007210 0.095295 -0.056978
v 0.007210 0.095295 -0.056978
v 0.011458 0.089533 -0.060117
v -0.038597 0.029305 0.127878
v -0.015987 0.051914 0.127878
v 0.015987 0.051914 0.127878
v 0.038597 0.029305 0.127878
v 0.038597 -0.002670 0.127878
v 0.015987 -0.025279 0.127878
v -0.015987 -0.025279 0.127878
v -0.038597 -0.002670 0.127878
v 0.094727 -0.080174 0.006825
v 0.094727 -0.080174 -0.155667
v 0.129012 0.001016 0.006825
v 0.105027 0.023672 0.006825
v 0.105027 0.023672 -0.155667
v 0.129012 0.001016 -0.155667
v 0.129012 -0.045042 0.006825
v 0.129012 -0.045042 -0.155667
v -0.094727 -0.080174 0.006825
v -0.094727 -0.080174 -0.155667
v -0.129012 0.001016 0.006825
v -0.105027 0.023672 0.006825
v -0.105027 0.023672 -0.155667
v -0.129012 0.001016 -0.155667
v -0.129012 -0.045042 0.006825
v -0.129012 -0.045042 -0.155667
v -0.066959 0.020609 0.102146
v -0.066080 0.037474 0.102947
v -0.055870 0.033976 0.112255
v -0.045761 0.030447 0.121472
v -0.044737 0.016844 0.122405
v -0.054560 0.028599 0.113450
v -0.054816 0.023667 0.113217
v -0.046847 0.021865 0.120482
v -0.047203 0.026633 0.120158
v -0.064615 0.031524 0.104283
v -0.064871 0.025687 0.104050
v -0.056925 0.024133 0.111294
v -0.057200 0.029030 0.111043
v 0.003372 0.067456 0.113835
v 0.003454 0.069567 0.111911
v 0.012555 0.069567 0.111911
v 0.012259 0.067456 0.113835
v -0.009655 0.081049 0.101443
v -0.002090 0.081049 0.101443
v -0.000548 0.058800 0.121727
v -0.005576 0.058800 0.121727
v -0.007354 0.068887 0.112530
v -0.013153 0.068887 0.112530
v -0.011172 0.058800 0.121727
v -0.016163 0.058800 0.121727
v -0.023413 0.081049 0.101443
v -0.015849 0.081049 0.101443
v -0.013594 0.070997 0.110606
v -0.007740 0.070997 0.110606
v -0.042759 0.065804 0.101792
v -0.029419 0.051018 0.119923
v -0.025907 0.054530 0.119923
v -0.036431 0.072132 0.101792
v -0.032037 0.076525 0.101792
v -0.021965 0.056369 0.121279
v -0.031809 0.046525 0.121279
v -0.047153 0.061410 0.101792
v -0.058133 0.047548 0.103649
v -0.049576 0.041850 0.112839
v -0.046098 0.045702 0.112598
v -0.053780 0.051552 0.103874
v -0.047784 0.040650 0.114768
v -0.040931 0.036184 0.122065
v -0.044378 0.032739 0.122063
v -0.064484 0.044207 0.101709
v -0.050987 0.056248 0.102648
v -0.041523 0.048262 0.113897
v -0.042688 0.045754 0.114763
v -0.033787 0.043334 0.122061
v -0.037374 0.039749 0.122060
v -0.046409 0.042028 0.114766
v -0.048059 0.030496 0.126416
v 0.049243 0.035079 0.117419
v 0.047352 0.033985 0.119343
v 0.045478 0.035859 0.119343
v 0.042417 0.033811 0.122637
v 0.039085 0.037143 0.122637
v 0.041997 0.039340 0.119343
v 0.034711 0.046627 0.119343
v 0.036979 0.048658 0.116571
v 0.055016 0.052676 0.102353
v 0.059693 0.047999 0.102353
v 0.040085 0.044237 0.117419
v 0.043754 0.040568 0.117419
v 0.048729 0.044091 0.111940
v 0.052555 0.040265 0.111940
v 0.047322 0.037000 0.117419
v 0.033494 0.064131 0.108842
v 0.029300 0.068326 0.108842
v 0.033427 0.073030 0.103149
v 0.045537 0.060921 0.103149
v 0.031300 0.046163 0.121840
v 0.021619 0.055844 0.121840
v 0.024709 0.061535 0.116180
v 0.028552 0.057692 0.116180
v 0.025792 0.053774 0.120485
v 0.029017 0.050549 0.120485
v 0.033981 0.056311 0.113570
v 0.031102 0.059543 0.113343
v 0.032435 0.061245 0.111386
v 0.035713 0.058321 0.111158
v 0.040490 0.063865 0.104505
v 0.036585 0.067769 0.104505
v 0.057941 0.026325 0.110368
v 0.057067 0.015681 0.111165
v 0.045240 0.015145 0.121947
v 0.045240 0.026682 0.121947
v 0.051888 0.028390 0.115887
v 0.051888 0.023522 0.115887
v 0.046729 0.022895 0.120590
v 0.046729 0.019462 0.120590
v 0.055562 0.020989 0.112537
v 0.055828 0.031918 0.112295
v 0.066645 0.036733 0.102433
v 0.066645 0.016859 0.102433
v 0.064532 0.016620 0.104360
v 0.064532 0.028056 0.104360
vt 0.099727 0.012439
vt 0.189169 0.012439
vt 0.189169 0.493208
vt 0.099727 0.493208
vt 0.965121 0.429761
vt 0.965121 0.409584
vt 0.989596 0.409584
vt 0.989596 0.429761
vt 0.276458 0.012439
vt 0.276457 0.493208
vt 0.361593 0.012439
vt 0.361593 0.493208
vt 0.448882 0.012439
vt 0.448881 0.493208
vt 0.536170 0.012439
vt 0.536170 0.493208
vt 0.623459 0.012439
vt 0.623459 0.493208
vt 0.710747 0.012439
vt 0.710747 0.493208
vt 0.012439 0.493208
vt 0.012439 0.012439
vt 0.977072 0.676126
vt 0.977072 0.709958
vt 0.943239 0.709958
vt 0.943239 0.676126
vt 0.977072 0.642293
vt 0.943239 0.642293
vt 0.977072 0.608460
vt 0.943239 0.608460
vt 0.977072 0.574628
vt 0.943239 0.574628
vt 0.977072 0.540795
vt 0.943239 0.540795
vt 0.977072 0.506962
vt 0.943239 0.506962
vt 0.977072 0.473130
vt 0.943239 0.473130
vt 0.977072 0.743791
vt 0.943239 0.743791
vt 0.508333 0.743397
vt 0.536357 0.715374
vt 0.575988 0.715374
vt 0.604012 0.743398
vt 0.604012 0.783029
vt 0.575988 0.811052
vt 0.536357 0.811052
vt 0.508333 0.783029
vt 0.965121 0.449938
vt 0.989596 0.449938
vt 0.965121 0.328877
vt 0.965121 0.308700
vt 0.989596 0.308700
vt 0.989596 0.328877
vt 0.965121 0.369230
vt 0.965121 0.349053
vt 0.989596 0.349053
vt 0.989596 0.369230
vt 0.965121 0.389407
vt 0.989596 0.389407
vt 0.965121 0.288523
vt 0.989596 0.288523
vt 0.716600 0.879772
vt 0.783293 0.879772
vt 0.815763 0.985850
vt 0.684130 0.985850
vt 0.169248 0.909385
vt 0.200702 0.909385
vt 0.216015 0.959413
vt 0.153935 0.959413
vt 0.102710 0.909423
vt 0.134163 0.909423
vt 0.149476 0.959451
vt 0.087396 0.959451
vt 0.035084 0.909423
vt 0.066538 0.909423
vt 0.081851 0.959451
vt 0.019771 0.959451
vt 0.850904 0.879852
vt 0.917597 0.879852
vt 0.950067 0.985930
vt 0.818434 0.985930
vt 0.071316 0.850488
vt 0.012439 0.850488
vt 0.012439 0.713905
vt 0.071316 0.713905
vt 0.247947 0.850488
vt 0.189070 0.850488
vt 0.189070 0.713905
vt 0.247947 0.713905
vt 0.306824 0.850488
vt 0.306824 0.713905
vt 0.365701 0.850488
vt 0.365701 0.713905
vt 0.424579 0.850488
vt 0.424578 0.713905
vt 0.483456 0.850488
vt 0.483456 0.713905
vt 0.130193 0.850488
vt 0.130193 0.713905
vt 0.655507 0.806253
vt 0.628889 0.779635
vt 0.628889 0.741992
vt 0.655507 0.715374
vt 0.693151 0.715374
vt 0.719768 0.741992
vt 0.719768 0.779635
vt 0.693151 0.806253
vt 0.781184 0.776973
vt 0.781184 0.807476
vt 0.767304 0.816463
vt 0.767304 0.767986
vt 0.978148 0.767986
vt 0.978148 0.816463
vt 0.964268 0.807476
vt 0.964268 0.776973
vt 0.774544 0.761830
vt 0.970908 0.761830
vt 0.970908 0.822619
vt 0.774544 0.822619
vt 0.735625 0.012439
vt 0.933022 0.012439
vt 0.933022 0.066663
vt 0.735625 0.066663
vt 0.933022 0.105506
vt 0.735625 0.105506
vt 0.012439 0.576413
vt 0.069360 0.518085
vt 0.383901 0.518085
vt 0.440823 0.576413
vt 0.919524 0.730827
vt 0.795509 0.730827
vt 0.795509 0.694520
vt 0.919524 0.694520
vt 0.735625 0.445868
vt 0.735625 0.391643
vt 0.933022 0.391643
vt 0.933022 0.445868
vt 0.735625 0.352800
vt 0.933022 0.352800
vt 0.919524 0.518085
vt 0.919524 0.554393
vt 0.795509 0.554393
vt 0.795509 0.518085
vt 0.440823 0.652882
vt 0.012439 0.652882
vt 0.401002 0.690496
vt 0.052260 0.690496
vt 0.769469 0.613670
vt 0.741232 0.640343
vt 0.493937 0.640343
vt 0.465700 0.613670
vt 0.465700 0.559445
vt 0.769469 0.559445
vt 0.506064 0.518085
vt 0.729105 0.518085
vt 0.648865 0.880055
vt 0.681335 0.986134
vt 0.549702 0.986134
vt 0.582173 0.880055
vt 0.546991 0.986134
vt 0.415358 0.986134
vt 0.447828 0.880055
vt 0.514521 0.880055
vt 0.381004 0.880055
vt 0.413475 0.986134
vt 0.281841 0.986134
vt 0.314311 0.880055
vt 0.231098 0.637788
vt 0.232657 0.653519
vt 0.226864 0.661729
vt 0.277295 0.643364
vt 0.256243 0.635830
vt 0.281631 0.633971
vt 0.277176 0.653809
vt 0.258861 0.644073
vt 0.252357 0.644323
vt 0.234134 0.645056
vt 0.252355 0.653647
vt 0.257566 0.653681
vt 0.281631 0.664569
vt 0.289804 0.650054
vt 0.284636 0.634118
vt 0.289804 0.633971
vt 0.213939 0.562442
vt 0.215067 0.537736
vt 0.223860 0.537712
vt 0.201441 0.567644
vt 0.198960 0.592267
vt 0.187679 0.592297
vt 0.201962 0.562474
vt 0.213703 0.567611
vt 0.284636 0.650590
vt 0.212579 0.592230
vt 0.223860 0.592200
vt 0.195659 0.537788
vt 0.204452 0.537764
vt 0.250234 0.538253
vt 0.253150 0.557649
vt 0.243517 0.558221
vt 0.258097 0.559674
vt 0.230506 0.622114
vt 0.279214 0.630966
vt 0.226864 0.630379
vt 0.226864 0.594224
vt 0.249106 0.587113
vt 0.259339 0.589768
vt 0.249286 0.563687
vt 0.232205 0.539323
vt 0.240948 0.538804
vt 0.239923 0.558434
vt 0.239652 0.563628
vt 0.279214 0.597229
vt 0.230506 0.613765
vt 0.226864 0.606053
vt 0.259339 0.537712
vt 0.279214 0.619720
vt 0.238362 0.588364
vt 0.279214 0.608475
vt 0.266733 0.579961
vt 0.263623 0.572944
vt 0.268123 0.574926
vt 0.276480 0.578606
vt 0.272081 0.560588
vt 0.281018 0.564523
vt 0.264354 0.588581
vt 0.274887 0.583552
vt 0.272159 0.592018
vt 0.206386 0.623620
vt 0.214600 0.617642
vt 0.214330 0.624127
vt 0.285205 0.582448
vt 0.294865 0.542480
vt 0.294865 0.584213
vt 0.207119 0.599167
vt 0.195957 0.610880
vt 0.199083 0.595631
vt 0.203594 0.642144
vt 0.193404 0.630626
vt 0.204138 0.630484
vt 0.223860 0.595302
vt 0.223860 0.645517
vt 0.192869 0.645929
vt 0.291955 0.591068
vt 0.262343 0.578028
vt 0.206788 0.618358
vt 0.284038 0.537712
vt 0.205792 0.610750
vt 0.215373 0.599057
vt 0.213586 0.642011
vt 0.329464 0.615376
vt 0.334639 0.597229
vt 0.334639 0.626677
vt 0.313323 0.614146
vt 0.308147 0.623356
vt 0.307497 0.606447
vt 0.311181 0.598008
vt 0.282218 0.598135
vt 0.285865 0.605606
vt 0.282218 0.619421
vt 0.285865 0.612377
vt 0.298498 0.622511
vt 0.298498 0.613701
vt 0.329464 0.597267
vn -0.7071 0.7071 0.0000
vn 0.7071 -0.7071 -0.0000
vn -0.0000 1.0000 0.0000
vn 0.7071 0.7071 0.0000
vn 1.0000 0.0000 -0.0000
vn -0.0000 -1.0000 -0.0000
vn -0.7071 -0.7071 0.0000
vn -1.0000 -0.0000 0.0000
vn 0.0000 0.0000 -1.0000
vn 0.4764 0.4764 0.7390
vn 0.4764 -0.4764 0.7390
vn -0.0000 -0.6737 0.7390
vn -0.4764 -0.4764 0.7390
vn 0.6737 0.0000 0.7390
vn -0.0000 0.0000 1.0000
vn 0.0000 0.4784 -0.8781
vn -0.0000 0.4784 0.8781
vn -0.8049 0.5935 0.0000
vn 0.8049 0.5935 -0.0000
vn 0.6867 0.7270 -0.0000
vn 0.7157 -0.6984 -0.0000
vn -0.6867 0.7270 -0.0000
vn -0.7157 -0.6984 0.0000
vn 0.0000 0.6737 0.7390
vn -0.4764 0.4764 0.7390
vn -0.6737 0.0000 0.7390
s off
f 26/1/1 25/2/1 10/3/1 9/4/1
f 1/5/2 2/6/2 18/7/2 17/8/2
f 10/3/3 25/2/3 27/9/3 11/10/3
f 11/10/4 27/9/4 28/11/4 12/12/4
f 29/13/5 13/14/5 12/12/5 28/11/5
f 30/15/2 14/16/2 13/14/2 29/13/2
f 31/17/6 15/18/6 14/16/6 30/15/6
f 32/19/7 16/20/7 15/18/7 31/17/7
f 16/21/8 32/22/8 26/1/8 9/4/8
f 2/23/9 1/24/9 9/25/9 10/26/9
f 3/27/9 2/23/9 10/26/9 11/28/9
f 4/29/9 3/27/9 11/28/9 12/30/9
f 5/31/9 4/29/9 12/30/9 13/32/9
f 6/33/9 5/31/9 13/32/9 14/34/9
f 7/35/9 6/33/9 14/34/9 15/36/9
f 8/37/9 7/35/9 15/36/9 16/38/9
f 1/24/9 8/39/9 16/40/9 9/25/9
f 17/41/9 18/42/9 19/43/9 20/44/9 21/45/9 22/46/9 23/47/9 24/48/9
f 8/49/5 1/5/5 17/8/5 24/50/5
f 6/51/3 7/52/3 23/53/3 22/54/3
f 4/55/8 5/56/8 21/57/8 20/58/8
f 2/6/6 3/59/6 19/60/6 18/7/6
f 7/52/4 8/61/4 24/62/4 23/53/4
f 5/56/1 6/51/1 22/54/1 21/57/1
f 3/59/7 4/55/7 20/58/7 19/60/7
f 51/63/10 52/64/10 28/65/10 27/66/10
f 53/67/11 54/68/11 30/69/11 29/70/11
f 54/71/12 55/72/12 31/73/12 30/74/12
f 55/75/13 56/76/13 32/77/13 31/78/13
f 52/79/14 53/80/14 29/81/14 28/82/14
f 49/83/8 56/84/8 40/85/8 34/86/8
f 52/87/4 51/88/4 35/89/4 36/90/4
f 53/91/5 52/87/5 36/90/5 37/92/5
f 54/93/2 53/91/2 37/92/2 38/94/2
f 55/95/6 54/93/6 38/94/6 39/96/6
f 56/97/7 55/95/7 39/96/7 40/98/7
f 51/88/3 50/99/3 33/100/3 35/89/3
f 33/101/15 34/102/15 40/103/15 39/104/15 38/105/15 37/106/15 36/107/15 35/108/15
f 46/109/16 47/110/16 48/111/16 45/112/16
f 44/113/17 41/114/17 42/115/17 43/116/17
f 46/109/3 43/116/3 42/115/3 47/110/3
f 43/116/18 46/109/18 45/117/18 44/118/18
f 41/119/19 48/120/19 47/110/19 42/115/19
f 50/99/1 49/83/1 34/86/1 33/100/1
f 63/121/5 64/122/5 62/123/5 59/124/5
f 59/124/20 62/123/20 61/125/20 60/126/20
f 71/127/15 65/128/15 57/129/15 63/130/15
f 64/131/21 63/132/21 57/133/21 58/134/21
f 71/135/8 67/136/8 70/137/8 72/138/8
f 67/136/22 68/139/22 69/140/22 70/137/22
f 60/126/3 61/125/3 69/140/3 68/139/3
f 72/141/23 66/142/23 65/143/23 71/144/23
f 71/127/15 63/130/15 59/145/15 67/146/15
f 59/145/15 60/147/15 68/148/15 67/146/15
f 70/149/9 69/150/9 61/151/9 62/152/9
f 70/149/9 62/152/9 64/153/9 72/154/9
f 58/155/9 66/156/9 72/154/9 64/153/9
f 58/134/6 57/133/6 65/143/6 66/142/6
f 51/157/24 27/158/24 25/159/24 50/160/24
f 25/161/25 26/162/25 49/163/25 50/164/25
f 49/165/26 26/166/26 32/167/26 56/168/26
f 76/169/26 80/170/26 77/171/26
f 82/172/26 75/173/26 74/174/26
f 74/174/26 83/175/26 82/172/26
f 85/176/26 78/177/26 75/173/26
f 75/173/26 81/178/26 76/169/26
f 79/179/26 85/176/26 84/180/26
f 77/171/26 80/170/26 79/179/26
f 76/169/26 81/178/26 80/170/26
f 82/172/26 85/176/26 75/173/26
f 74/174/26 73/181/26 83/175/26
f 75/173/26 78/177/26 81/178/26
f 79/179/26 78/177/26 85/176/26
f 83/175/26 73/181/26 84/180/26
f 73/181/26 77/171/26 79/179/26
f 84/180/26 73/181/26 79/179/26
f 89/182/24 87/183/24 86/184/24
f 94/185/24 93/186/24 92/187/24
f 100/188/24 99/189/24 98/190/24
f 95/191/24 101/192/24 100/188/24
f 89/182/24 88/193/24 87/183/24
f 90/194/24 101/192/24 91/195/24
f 101/192/24 94/185/24 91/195/24
f 91/195/24 94/185/24 92/187/24
f 98/190/24 97/196/24 95/191/24
f 97/196/24 96/197/24 95/191/24
f 95/191/24 100/188/24 98/190/24
f 95/191/24 94/185/24 101/192/24
f 122/198/25 120/199/25 123/200/25
f 120/199/25 119/201/25 123/200/25
f 103/202/25 109/203/25 108/204/25
f 117/205/25 113/206/25 118/207/25
f 112/208/25 118/207/25 113/206/25
f 119/201/25 112/208/25 123/200/25
f 116/209/25 115/210/25 114/211/25
f 111/212/25 123/200/25 112/208/25
f 106/213/25 104/214/25 107/215/25
f 108/204/25 104/214/25 103/202/25
f 122/198/25 121/216/25 120/199/25
f 103/202/25 102/217/25 109/203/25
f 117/205/25 110/218/25 113/206/25
f 112/208/25 119/201/25 118/207/25
f 114/211/25 111/212/25 116/209/25
f 111/212/25 110/218/25 117/205/25
f 116/209/25 111/212/25 117/205/25
f 111/212/25 114/211/25 123/200/25
f 106/213/25 105/219/25 104/214/25
f 108/204/25 107/215/25 104/214/25
f 127/220/10 125/221/10 139/222/10
f 136/223/10 138/224/10 137/225/10
f 128/226/10 130/227/10 129/228/10
f 152/229/10 150/230/10 153/231/10
f 130/227/10 139/222/10 136/223/10
f 135/232/10 133/233/10 132/234/10
f 148/235/10 146/236/10 145/237/10
f 155/238/10 141/239/10 140/240/10
f 144/241/10 148/235/10 145/237/10
f 155/238/10 143/242/10 142/243/10
f 144/241/10 143/242/10 150/230/10
f 135/232/10 132/234/10 131/244/10
f 135/232/10 130/227/10 136/223/10
f 127/220/10 126/245/10 125/221/10
f 136/223/10 139/222/10 138/224/10
f 128/226/10 127/220/10 130/227/10
f 152/229/10 151/246/10 150/230/10
f 130/227/10 127/220/10 139/222/10
f 135/232/10 134/247/10 133/233/10
f 148/235/10 147/248/10 146/236/10
f 155/238/10 142/243/10 141/239/10
f 144/241/10 149/249/10 148/235/10
f 155/238/10 154/250/10 143/242/10
f 143/242/10 154/250/10 153/231/10
f 153/231/10 150/230/10 143/242/10
f 150/230/10 149/249/10 144/241/10
f 135/232/10 131/244/10 130/227/10
f 169/251/14 167/252/14 166/253/14
f 156/254/14 166/253/14 165/255/14
f 156/254/14 164/256/14 157/257/14
f 158/258/14 164/256/14 163/259/14
f 159/260/14 163/259/14 162/261/14
f 160/262/14 162/261/14 161/263/14
f 169/251/14 168/264/14 167/252/14
f 156/254/14 169/251/14 166/253/14
f 156/254/14 165/255/14 164/256/14
f 158/258/14 157/257/14 164/256/14
f 159/260/14 158/258/14 163/259/14
f 160/262/14 159/260/14 162/261/14
