# Blender v3.3.0 OBJ File: 'missile_pack.blend'
# www.blender.org
o Cube
v 0.159144 0.127923 -0.115905
v 0.152688 0.088726 -0.114821
v 0.191885 0.095182 -0.115905
v 0.152688 -0.088726 -0.114821
v 0.191885 -0.095182 -0.115905
v 0.159144 -0.127923 -0.115905
v 0.191885 0.095182 0.115905
v 0.159144 0.127923 0.115905
v 0.159144 -0.127923 0.115905
v 0.191885 -0.095182 0.115905
v -0.191885 0.095182 -0.115905
v -0.152688 0.088726 -0.114821
v -0.159144 0.127923 -0.115905
v -0.152688 -0.088726 -0.114821
v -0.159144 -0.127923 -0.115905
v -0.191885 -0.095182 -0.115905
v -0.159144 0.127923 0.115905
v -0.191885 0.095182 0.115905
v -0.191885 -0.095182 0.115905
v -0.159144 -0.127923 0.115905
v -0.164321 -0.100360 -0.131734
v 0.164321 0.100360 -0.131734
v -0.164321 0.100360 -0.131734
v 0.164321 -0.100360 -0.131734
v 0.096722 0.044363 -0.152486
v 0.096722 -0.044363 -0.152486
v 0.000000 0.044363 -0.152486
v 0.000000 -0.044363 -0.152486
v -0.097488 0.044363 -0.152486
v -0.097488 -0.044363 -0.152486
v 0.096722 0.071368 -0.114821
v 0.123727 0.044363 -0.114821
v 0.096722 0.017358 -0.114821
v 0.069717 0.044363 -0.114821
v 0.096722 -0.017358 -0.114821
v 0.123727 -0.044363 -0.114821
v 0.096722 -0.071368 -0.114821
v 0.069717 -0.044363 -0.114821
v 0.000000 0.071368 -0.114821
v 0.027005 0.044363 -0.114821
v 0.000000 0.017358 -0.114821
v -0.027005 0.044363 -0.114821
v 0.000000 -0.017358 -0.114821
v 0.027005 -0.044363 -0.114821
v 0.000000 -0.071368 -0.114821
v -0.027005 -0.044363 -0.114821
v -0.097488 0.071368 -0.114821
v -0.070484 0.044363 -0.114821
v -0.097488 0.017358 -0.114821
v -0.124493 0.044363 -0.114821
v -0.097488 -0.017358 -0.114821
v -0.070484 -0.044363 -0.114821
v -0.097488 -0.071368 -0.114821
v -0.124493 -0.044363 -0.114821
v 0.199937 -0.034387 -0.055668
v 0.199937 0.034387 -0.055668
v 0.199937 -0.034387 -0.070932
v 0.191885 0.044474 0.050303
v 0.191885 -0.044474 0.076297
v 0.191885 -0.044474 -0.076297
v 0.191885 0.044474 -0.076297
v 0.191885 -0.044474 -0.034097
v 0.191885 0.044474 -0.034097
v 0.191885 -0.044474 -0.050303
v 0.191885 0.044474 -0.008103
v 0.199937 0.034387 -0.013468
v 0.199937 -0.034387 0.070932
v 0.199937 -0.034387 0.013468
v 0.191885 -0.044474 0.008103
v 0.191885 0.044474 0.008103
v 0.199937 0.034387 0.013468
v 0.191885 0.044474 -0.050303
v 0.199937 -0.034387 -0.028732
v 0.199937 0.034387 -0.028732
v 0.191885 0.044474 0.076297
v 0.199937 0.034387 0.070932
v 0.199937 0.034387 -0.070932
v 0.199937 -0.034387 0.055668
v 0.191885 -0.044474 0.050303
v 0.199937 0.034387 0.055668
v 0.199937 -0.034387 0.028732
v 0.199937 0.034387 0.028732
v 0.199937 -0.034387 -0.013468
v 0.191885 -0.044474 -0.008103
v 0.191885 0.044474 0.034097
v 0.191885 -0.044474 0.034097
v -0.199937 -0.034387 -0.055668
v -0.199937 0.034387 -0.055668
v -0.199937 0.034387 0.070932
v -0.191885 0.044474 0.050303
v -0.191885 -0.044474 0.076297
v -0.191885 -0.044474 -0.076297
v -0.191885 0.044474 -0.050303
v -0.191885 -0.044474 -0.034097
v -0.199937 0.034387 -0.013468
v -0.191885 -0.044474 -0.050303
v -0.191885 0.044474 -0.008103
v -0.199937 -0.034387 0.070932
v -0.199937 -0.034387 0.013468
v -0.191885 -0.044474 0.008103
v -0.191885 0.044474 0.008103
v -0.199937 0.034387 0.013468
v -0.199937 -0.034387 -0.028732
v -0.191885 0.044474 -0.034097
v -0.199937 0.034387 -0.028732
v -0.191885 0.044474 0.076297
v -0.199937 -0.034387 -0.070932
v -0.191885 0.044474 -0.076297
v -0.199937 0.034387 -0.070932
v -0.199937 -0.034387 0.055668
v -0.191885 -0.044474 0.050303
v -0.199937 0.034387 0.055668
v -0.199937 -0.034387 0.028732
v -0.199937 0.034387 0.028732
v -0.199937 -0.034387 -0.013468
v -0.191885 -0.044474 -0.008103
v -0.191885 0.044474 0.034097
v -0.191885 -0.044474 0.034097
v -0.191885 -0.095182 -0.115905
v -0.191885 -0.095182 -0.115905
v -0.191885 -0.095182 -0.115905
v -0.164321 -0.100360 -0.131734
v -0.164321 -0.100360 -0.131734
v -0.164321 -0.100360 -0.131734
v -0.164321 -0.100360 -0.131734
v -0.159144 -0.127923 -0.115905
v -0.159144 -0.127923 -0.115905
v -0.159144 -0.127923 -0.115905
v -0.191885 -0.095182 0.115905
v -0.191885 -0.095182 0.115905
v -0.159144 -0.127923 0.115905
v -0.159144 -0.127923 0.115905
v 0.164321 0.100360 -0.131734
v 0.164321 0.100360 -0.131734
v 0.164321 0.100360 -0.131734
v 0.164321 0.100360 -0.131734
v 0.159144 0.127923 -0.115905
v 0.159144 0.127923 -0.115905
v 0.159144 0.127923 -0.115905
v 0.191885 0.095182 -0.115905
v 0.191885 0.095182 -0.115905
v 0.191885 0.095182 -0.115905
v 0.191885 0.095182 0.115905
v 0.191885 0.095182 0.115905
v 0.159144 0.127923 0.115905
v 0.159144 0.127923 0.115905
v -0.159144 0.127923 0.115905
v -0.159144 0.127923 0.115905
v -0.191885 0.095182 0.115905
v -0.191885 0.095182 0.115905
v -0.164321 0.100360 -0.131734
v -0.164321 0.100360 -0.131734
v -0.164321 0.100360 -0.131734
v -0.164321 0.100360 -0.131734
v -0.191885 0.095182 -0.115905
v -0.191885 0.095182 -0.115905
v -0.191885 0.095182 -0.115905
v -0.159144 0.127923 -0.115905
v -0.159144 0.127923 -0.115905
v -0.159144 0.127923 -0.115905
v 0.159144 -0.127923 0.115905
v 0.159144 -0.127923 0.115905
v 0.191885 -0.095182 0.115905
v 0.191885 -0.095182 0.115905
v 0.159144 -0.127923 -0.115905
v 0.159144 -0.127923 -0.115905
v 0.159144 -0.127923 -0.115905
v 0.164321 -0.100360 -0.131734
v 0.164321 -0.100360 -0.131734
v 0.164321 -0.100360 -0.131734
v 0.164321 -0.100360 -0.131734
v 0.191885 -0.095182 -0.115905
v 0.191885 -0.095182 -0.115905
v 0.191885 -0.095182 -0.115905
v 0.152688 -0.088726 -0.114821
v 0.152688 -0.088726 -0.114821
v 0.152688 0.088726 -0.114821
v 0.152688 0.088726 -0.114821
v -0.152688 -0.088726 -0.114821
v -0.152688 -0.088726 -0.114821
v -0.152688 0.088726 -0.114821
v -0.152688 0.088726 -0.114821
v 0.191885 0.044474 0.076297
v 0.199937 0.034387 0.070932
v 0.199937 0.034387 0.070932
v 0.199937 -0.034387 0.055668
v 0.199937 -0.034387 0.055668
v 0.191885 -0.044474 0.050303
v -0.191885 0.044474 -0.008103
v -0.199937 0.034387 -0.013468
v -0.199937 0.034387 -0.013468
v -0.191885 -0.044474 -0.050303
v -0.199937 -0.034387 -0.055668
v -0.199937 -0.034387 -0.055668
v 0.191885 0.044474 0.050303
v 0.199937 0.034387 0.028732
v 0.199937 0.034387 0.028732
v 0.199937 0.034387 0.013468
v 0.199937 0.034387 0.013468
v 0.191885 0.044474 -0.050303
v 0.191885 0.044474 -0.076297
v 0.191885 -0.044474 0.076297
v 0.191885 -0.044474 -0.050303
v 0.199937 -0.034387 -0.013468
v 0.199937 -0.034387 -0.013468
v 0.199937 0.034387 -0.013468
v 0.199937 0.034387 -0.013468
v 0.191885 -0.044474 0.034097
v 0.199937 -0.034387 0.028732
v 0.199937 -0.034387 0.028732
v 0.191885 -0.044474 0.008103
v 0.199937 -0.034387 0.070932
v 0.199937 -0.034387 0.070932
v 0.199937 0.034387 0.055668
v 0.199937 0.034387 0.055668
v 0.199937 -0.034387 -0.070932
v 0.199937 -0.034387 -0.070932
v 0.199937 -0.034387 -0.055668
v 0.199937 -0.034387 -0.055668
v 0.199937 0.034387 -0.055668
v 0.199937 0.034387 -0.055668
v 0.191885 0.044474 0.034097
v 0.191885 0.044474 0.008103
v 0.199937 0.034387 -0.070932
v 0.199937 0.034387 -0.070932
v 0.199937 -0.034387 -0.028732
v 0.199937 -0.034387 -0.028732
v 0.191885 -0.044474 -0.034097
v 0.191885 0.044474 -0.034097
v 0.191885 -0.044474 -0.076297
v 0.191885 -0.044474 -0.008103
v -0.199937 -0.034387 0.055668
v -0.199937 -0.034387 0.055668
v -0.191885 -0.044474 0.050303
v 0.191885 0.044474 -0.008103
v 0.199937 0.034387 -0.028732
v 0.199937 0.034387 -0.028732
v -0.199937 0.034387 0.013468
v -0.199937 0.034387 0.013468
v -0.199937 -0.034387 0.013468
v -0.199937 -0.034387 0.013468
v -0.199937 0.034387 -0.028732
v -0.199937 0.034387 -0.028732
v -0.199937 -0.034387 -0.028732
v -0.199937 -0.034387 -0.028732
v 0.199937 -0.034387 0.013468
v 0.199937 -0.034387 0.013468
v -0.191885 0.044474 -0.034097
v -0.191885 -0.044474 0.034097
v -0.191885 0.044474 0.034097
v -0.199937 -0.034387 0.070932
v -0.199937 -0.034387 0.070932
v -0.199937 0.034387 0.028732
v -0.199937 0.034387 0.028732
v -0.191885 -0.044474 -0.008103
v -0.199937 -0.034387 -0.013468
v -0.199937 -0.034387 -0.013468
v -0.199937 0.034387 -0.055668
v -0.199937 0.034387 -0.055668
v -0.191885 -0.044474 0.076297
v -0.191885 0.044474 0.076297
v -0.191885 -0.044474 0.008103
v -0.191885 0.044474 -0.050303
v -0.191885 0.044474 -0.076297
v -0.191885 -0.044474 -0.034097
v -0.191885 0.044474 0.050303
v -0.199937 0.034387 0.055668
v -0.199937 0.034387 0.055668
v -0.191885 0.044474 0.008103
v -0.199937 0.034387 0.070932
v -0.199937 0.034387 0.070932
v -0.199937 -0.034387 -0.070932
v -0.199937 -0.034387 -0.070932
v -0.191885 -0.044474 -0.076297
v -0.199937 0.034387 -0.070932
v -0.199937 0.034387 -0.070932
v -0.199937 -0.034387 0.028732
v -0.199937 -0.034387 0.028732
vt 0.101033 0.061284
vt 0.436980 0.061284
vt 0.436980 0.130512
vt 0.101033 0.130512
vt 0.436980 0.469542
vt 0.101033 0.469542
vt 0.101033 0.402637
vt 0.436980 0.402637
vt 0.101033 0.128189
vt 0.101033 0.400314
vt 0.436980 0.400314
vt 0.436980 0.128189
vt 0.436980 0.061284
vt 0.101033 0.061284
vt 0.101033 0.128189
vt 0.436980 0.128189
vt 0.478370 0.876545
vt 0.022617 0.876545
vt 0.022617 0.539486
vt 0.478370 0.539485
vt 0.436980 0.130512
vt 0.436980 0.402637
vt 0.101033 0.402637
vt 0.101033 0.130512
vt 0.478370 0.876545
vt 0.022617 0.876545
vt 0.022617 0.539486
vt 0.478370 0.539485
vt 0.101033 0.469542
vt 0.436980 0.469542
vt 0.436980 0.400314
vt 0.101033 0.400314
vt 0.062548 0.130512
vt 0.101033 0.061284
vt 0.101033 0.130512
vt 0.062548 0.400314
vt 0.101033 0.469542
vt 0.101033 0.400314
vt 0.062548 0.402637
vt 0.101033 0.402637
vt 0.101033 0.469542
vt 0.062548 0.128189
vt 0.101033 0.128189
vt 0.101033 0.061284
vt 0.022617 0.876545
vt 0.478370 0.876545
vt 0.485784 0.922059
vt 0.015203 0.922059
vt 0.101033 0.130512
vt 0.101033 0.402637
vt 0.062548 0.402637
vt 0.062548 0.130512
vt 0.022617 0.876545
vt 0.478370 0.876545
vt 0.485784 0.922059
vt 0.015203 0.922059
vt 0.101033 0.400314
vt 0.101033 0.128189
vt 0.062548 0.128189
vt 0.062548 0.400314
vt 0.982215 0.702118
vt 0.810858 0.873475
vt 0.515972 0.578589
vt 0.687328 0.407232
vt 0.469126 0.951453
vt 0.031861 0.951453
vt 0.015203 0.922059
vt 0.485784 0.922059
vt 0.034715 0.386308
vt 0.034715 0.145707
vt 0.062548 0.130512
vt 0.062548 0.402637
vt 0.469126 0.951453
vt 0.031861 0.951453
vt 0.015203 0.922059
vt 0.485784 0.922059
vt 0.034715 0.144518
vt 0.034715 0.385118
vt 0.062548 0.400314
vt 0.062548 0.128189
vt 0.591407 0.315971
vt 0.560969 0.285534
vt 0.591407 0.078128
vt 0.560969 0.108566
vt 0.887297 0.078128
vt 0.887297 0.315971
vt 0.917734 0.108566
vt 0.917734 0.285534
vt 0.596562 0.788861
vt 0.663373 0.788861
vt 0.596562 0.855672
vt 0.529751 0.788861
vt 0.596562 0.722050
vt 0.596562 0.788861
vt 0.596562 0.855672
vt 0.529751 0.788861
vt 0.596562 0.722050
vt 0.663373 0.788861
vt 0.596562 0.788861
vt 0.529751 0.788861
vt 0.596562 0.722050
vt 0.663373 0.788861
vt 0.596562 0.855672
vt 0.596562 0.788861
vt 0.596562 0.855672
vt 0.529751 0.788861
vt 0.596562 0.722050
vt 0.663373 0.788861
vt 0.596562 0.788861
vt 0.596562 0.855672
vt 0.529751 0.788861
vt 0.596562 0.722050
vt 0.663373 0.788861
vt 0.596562 0.788861
vt 0.663373 0.788861
vt 0.596562 0.855672
vt 0.529751 0.788861
vt 0.596562 0.722050
vt 0.804063 0.343677
vt 0.878725 0.343677
vt 0.857750 0.374080
vt 0.825039 0.374080
vt 0.804063 0.343677
vt 0.878725 0.343677
vt 0.857750 0.374080
vt 0.825039 0.374080
vt 0.990317 0.560741
vt 0.990317 0.302129
vt 0.951931 0.341251
vt 0.951931 0.521619
vt 0.804063 0.343677
vt 0.878725 0.343677
vt 0.857750 0.374080
vt 0.825039 0.374080
vt 0.990317 0.560741
vt 0.990317 0.302129
vt 0.951931 0.341251
vt 0.951931 0.521619
vt 0.804063 0.343677
vt 0.878725 0.343677
vt 0.857750 0.374080
vt 0.825039 0.374080
vt 0.857955 0.447518
vt 0.809861 0.493982
vt 0.809861 0.457314
vt 0.821286 0.447518
vt 0.990317 0.560741
vt 0.990317 0.302129
vt 0.951931 0.341251
vt 0.951931 0.521619
vt 0.857955 0.447518
vt 0.809861 0.493982
vt 0.809861 0.457314
vt 0.821286 0.447518
vt 0.990317 0.560741
vt 0.990317 0.302129
vt 0.951931 0.341251
vt 0.951931 0.521619
vt 0.990317 0.302129
vt 0.990317 0.560741
vt 0.951931 0.521619
vt 0.951931 0.341251
vt 0.857955 0.447518
vt 0.809861 0.493982
vt 0.809861 0.457314
vt 0.821286 0.447518
vt 0.990317 0.302129
vt 0.990317 0.560741
vt 0.951931 0.521619
vt 0.951931 0.341251
vt 0.857955 0.447518
vt 0.809861 0.493982
vt 0.809861 0.457314
vt 0.821286 0.447518
vt 0.990317 0.302129
vt 0.990317 0.560741
vt 0.951931 0.521619
vt 0.951931 0.341251
vt 0.990317 0.302129
vt 0.990317 0.560741
vt 0.951931 0.521619
vt 0.951931 0.341251
vt 0.931959 0.342461
vt 0.931959 0.519529
vt 0.893881 0.519529
vt 0.893881 0.342461
vt 0.931959 0.342461
vt 0.931959 0.519529
vt 0.893881 0.519529
vt 0.893881 0.342461
vt 0.931959 0.342461
vt 0.931959 0.519529
vt 0.893881 0.519529
vt 0.893881 0.342461
vt 0.931959 0.342461
vt 0.931959 0.519529
vt 0.893881 0.519529
vt 0.893881 0.342461
vt 0.878725 0.343677
vt 0.857750 0.374080
vt 0.825039 0.374080
vt 0.804063 0.343677
vt 0.878725 0.343677
vt 0.857750 0.374080
vt 0.825039 0.374080
vt 0.804063 0.343677
vt 0.990317 0.560741
vt 0.951931 0.521619
vt 0.951931 0.341251
vt 0.990317 0.302129
vt 0.878725 0.343677
vt 0.857750 0.374080
vt 0.825039 0.374080
vt 0.804063 0.343677
vt 0.990317 0.560741
vt 0.951931 0.521619
vt 0.951931 0.341251
vt 0.990317 0.302129
vt 0.878725 0.343677
vt 0.857750 0.374080
vt 0.825039 0.374080
vt 0.804063 0.343677
vt 0.856688 0.448392
vt 0.820019 0.448392
vt 0.810223 0.459818
vt 0.810223 0.496487
vt 0.990317 0.560741
vt 0.951931 0.521619
vt 0.951931 0.341251
vt 0.990317 0.302129
vt 0.856688 0.448392
vt 0.820019 0.448392
vt 0.810223 0.459818
vt 0.810223 0.496487
vt 0.990317 0.560741
vt 0.951931 0.521619
vt 0.951931 0.341251
vt 0.990317 0.302129
vt 0.990317 0.302129
vt 0.951931 0.341251
vt 0.951931 0.521619
vt 0.990317 0.560741
vt 0.856688 0.448392
vt 0.820019 0.448392
vt 0.810223 0.459818
vt 0.810223 0.496487
vt 0.990317 0.302129
vt 0.951931 0.341251
vt 0.951931 0.521619
vt 0.990317 0.560741
vt 0.856688 0.448392
vt 0.820019 0.448392
vt 0.810223 0.459818
vt 0.810223 0.496487
vt 0.990317 0.302129
vt 0.951931 0.341251
vt 0.951931 0.521619
vt 0.990317 0.560741
vt 0.990317 0.302129
vt 0.951931 0.341251
vt 0.951931 0.521619
vt 0.990317 0.560741
vt 0.931959 0.342461
vt 0.893882 0.342461
vt 0.893882 0.519529
vt 0.931959 0.519529
vt 0.931959 0.342461
vt 0.893882 0.342461
vt 0.893882 0.519529
vt 0.931959 0.519529
vt 0.931959 0.342461
vt 0.893882 0.342461
vt 0.893882 0.519529
vt 0.931959 0.519529
vt 0.931959 0.342461
vt 0.893882 0.342461
vt 0.893882 0.519529
vt 0.931959 0.519529
vn -0.7071 -0.7071 0.0000
vn -0.7071 0.7071 0.0000
vn 1.0000 0.0000 0.0000
vn 0.7071 -0.7071 0.0000
vn 0.0000 1.0000 0.0000
vn -1.0000 0.0000 0.0000
vn 0.0000 -1.0000 0.0000
vn 0.7071 0.7071 0.0000
vn -0.5000 -0.5000 -0.7071
vn 0.5000 0.5000 -0.7071
vn -0.5000 0.5000 -0.7071
vn 0.5000 -0.5000 -0.7071
vn 0.0000 -0.4980 -0.8672
vn -0.4980 0.0000 -0.8672
vn 0.0000 0.4980 -0.8672
vn 0.4980 0.0000 -0.8672
vn 0.0000 0.0000 -1.0000
vn 0.0000 0.8239 -0.5667
vn 0.8239 0.0000 -0.5667
vn 0.0000 -0.8239 -0.5667
vn -0.8239 0.0000 -0.5667
vn 0.0000 0.0000 1.0000
vn -0.0000 0.8127 -0.5827
vn 0.8127 0.0000 -0.5827
vn -0.0000 -0.8127 -0.5827
vn -0.8127 -0.0000 -0.5827
vn 0.7816 -0.6238 0.0000
vn 0.5546 0.0000 0.8321
vn 0.7816 0.6238 0.0000
vn 0.5546 0.0000 -0.8321
vn -0.7816 -0.6238 0.0000
vn -0.5546 0.0000 0.8321
vn -0.7816 0.6238 0.0000
vn -0.5546 0.0000 -0.8321
s 1
f 126/1/1 131/2/1 129/3/1 120/4/1
f 147/5/2 158/6/2 156/7/2 149/8/2
f 173/9/3 141/10/3 144/11/3 164/12/3
f 161/13/4 166/14/4 172/15/4 163/16/4
f 139/17/5 159/18/5 148/19/5 146/20/5
f 130/21/6 150/22/6 157/23/6 121/24/6
f 127/25/7 167/26/7 162/27/7 132/28/7
f 138/29/8 145/30/8 143/31/8 140/32/8
f 122/33/9 128/34/9 119/35/9
f 133/36/10 137/37/10 142/38/10
f 151/39/11 155/40/11 160/41/11
f 168/42/12 174/43/12 165/44/12
f 6/45/13 15/46/13 124/47/13 170/48/13
f 16/49/14 11/50/14 152/51/14 123/52/14
f 13/53/15 1/54/15 135/55/15 153/56/15
f 3/57/16 5/58/16 169/59/16 134/60/16
f 179/61/17 181/62/17 177/63/17 175/64/17
f 180/65/18 176/66/18 171/67/18 125/68/18
f 182/69/19 14/70/19 21/71/19 154/72/19
f 178/73/20 12/74/20 23/75/20 136/76/20
f 4/77/21 2/78/21 22/79/21 24/80/21
f 17/81/22 18/82/22 20/83/22
f 18/82/22 19/84/22 20/83/22
f 20/83/22 9/85/22 8/86/22
f 9/85/22 10/87/22 8/86/22
f 10/87/22 7/88/22 8/86/22
f 8/86/22 17/81/22 20/83/22
f 25/89/17 31/90/23 32/91/24
f 25/89/17 32/91/24 33/92/25
f 25/89/17 33/92/25 34/93/26
f 25/89/17 34/93/26 31/90/23
f 26/94/17 35/95/23 36/96/24
f 26/94/17 36/96/24 37/97/25
f 26/94/17 37/97/25 38/98/26
f 26/94/17 38/98/26 35/95/23
f 27/99/17 39/100/23 40/101/24
f 27/99/17 40/101/24 41/102/25
f 27/99/17 41/102/25 42/103/26
f 27/99/17 42/103/26 39/100/23
f 28/104/17 43/105/23 44/106/24
f 28/104/17 44/106/24 45/107/25
f 28/104/17 45/107/25 46/108/26
f 28/104/17 46/108/26 43/105/23
f 29/109/17 47/110/23 48/111/24
f 29/109/17 48/111/24 49/112/25
f 29/109/17 49/112/25 50/113/26
f 29/109/17 50/113/26 47/110/23
f 30/114/17 51/115/23 52/116/24
f 30/114/17 52/116/24 53/117/25
f 30/114/17 53/117/25 54/118/26
f 30/114/17 54/118/26 51/115/23
f 208/119/27 211/120/27 247/121/27 209/122/27
f 231/123/27 228/124/27 226/125/27 205/126/27
f 222/127/28 86/128/28 210/129/28 197/130/28
f 64/131/27 60/132/27 216/133/27 218/134/27
f 235/135/28 84/136/28 204/137/28 206/138/28
f 202/139/27 188/140/27 186/141/27 213/142/27
f 223/143/29 85/144/29 196/145/29 198/146/29
f 72/147/28 203/148/28 219/149/28 220/150/28
f 63/151/29 65/152/29 207/153/29 237/154/29
f 183/155/28 59/156/28 212/157/28 184/158/28
f 69/159/30 70/160/30 199/161/30 246/162/30
f 201/163/29 200/164/29 221/165/29 225/166/29
f 62/167/30 229/168/30 236/169/30 227/170/30
f 58/171/29 75/172/29 185/173/29 215/174/29
f 230/175/30 61/176/30 224/177/30 217/178/30
f 79/179/30 195/180/30 214/181/30 187/182/30
f 68/183/3 71/184/3 82/185/3 81/186/3
f 73/187/3 74/188/3 66/189/3 83/190/3
f 57/191/3 77/192/3 56/193/3 55/194/3
f 78/195/3 80/196/3 76/197/3 67/198/3
f 118/199/31 277/200/31 241/201/31 262/202/31
f 255/203/31 256/204/31 245/205/31 265/206/31
f 250/207/32 253/208/32 278/209/32 249/210/32
f 192/211/31 193/212/31 272/213/31 274/214/31
f 189/215/32 190/216/32 257/217/32 116/218/32
f 91/219/31 251/220/31 232/221/31 234/222/31
f 269/223/33 239/224/33 254/225/33 117/226/33
f 93/227/32 258/228/32 194/229/32 96/230/32
f 248/231/33 243/232/33 191/233/33 97/234/33
f 261/235/32 270/236/32 252/237/32 260/238/32
f 100/239/34 240/240/34 238/241/34 101/242/34
f 264/243/33 275/244/33 259/245/33 263/246/33
f 94/247/34 244/248/34 242/249/34 104/250/34
f 266/251/33 267/252/33 271/253/33 106/254/33
f 92/255/34 273/256/34 276/257/34 108/258/34
f 111/259/34 233/260/34 268/261/34 90/262/34
f 99/263/6 113/264/6 114/265/6 102/266/6
f 103/267/6 115/268/6 95/269/6 105/270/6
f 107/271/6 87/272/6 88/273/6 109/274/6
f 110/275/6 98/276/6 89/277/6 112/278/6
