# Blender 3.3.0
# www.blender.org
o soda_bottle
v 0.000000 -0.200000 -0.080000
v 0.000000 0.200000 -0.023558
v 0.056569 -0.200000 -0.056569
v 0.016658 0.200000 -0.016658
v 0.080000 -0.200000 0.000000
v 0.023558 0.200000 -0.000000
v 0.056569 -0.200000 0.056569
v 0.016658 0.200000 0.016658
v 0.000000 -0.200000 0.080000
v 0.000000 0.200000 0.023558
v -0.056569 -0.200000 0.056569
v -0.016658 0.200000 0.016658
v -0.080000 -0.200000 0.000000
v -0.023558 0.200000 -0.000000
v -0.056569 -0.200000 -0.056569
v -0.016658 0.200000 -0.016658
v 0.000000 0.092898 -0.080000
v 0.056569 0.092898 -0.056569
v 0.080000 0.092898 0.000000
v 0.056569 0.092898 0.056569
v 0.000000 0.092898 0.080000
v -0.056569 0.092898 0.056569
v -0.080000 0.092898 0.000000
v -0.056569 0.092898 -0.056569
v 0.000000 0.169666 -0.023558
v 0.016658 0.169666 -0.016658
v 0.023558 0.169666 -0.000000
v 0.016658 0.169666 0.016658
v 0.000000 0.169666 0.023558
v -0.016658 0.169666 0.016658
v -0.023558 0.169666 -0.000000
v -0.016658 0.169666 -0.016658
v 0.056569 0.047887 -0.056569
v 0.056569 -0.133969 -0.056569
v 0.080000 0.047887 0.000000
v 0.080000 -0.133969 0.000000
v 0.056569 0.047887 0.056569
v 0.056569 -0.133969 0.056569
v 0.000000 0.047887 0.080000
v 0.000000 -0.133969 0.080000
v -0.056569 0.047887 0.056569
v -0.056569 -0.133969 0.056569
v -0.080000 0.047887 0.000000
v -0.080000 -0.133969 0.000000
v -0.056569 0.047887 -0.056569
v -0.056569 -0.133969 -0.056569
v 0.000000 -0.133969 -0.080000
v 0.000000 0.047887 -0.080000
v 0.052838 -0.105757 -0.052838
v 0.052838 0.019675 -0.052838
v 0.074724 -0.105757 0.000000
v 0.074724 0.019675 0.000000
v 0.052838 -0.105757 0.052838
v 0.052838 0.019675 0.052838
v 0.000000 -0.105757 0.074724
v 0.000000 0.019675 0.074724
v -0.052838 -0.105757 0.052838
v -0.052838 0.019675 0.052838
v -0.074724 -0.105757 0.000000
v -0.074724 0.019675 0.000000
v -0.052838 -0.105757 -0.052838
v -0.052838 0.019675 -0.052838
v 0.000000 0.019675 -0.074724
v 0.000000 -0.105757 -0.074724
v -0.016658 0.169666 -0.016658
v 0.000000 0.169666 -0.023558
v -0.023558 0.169666 -0.000000
v -0.016658 0.169666 0.016658
v 0.000000 0.169666 0.023558
v 0.016658 0.169666 0.016658
v 0.023558 0.169666 -0.000000
v 0.016658 0.169666 -0.016658
vn -0.0000 -0.0000 -1.0000
vn -0.0000 0.6303 -0.7764
vn 0.5490 0.6303 -0.5490
vn 0.7071 -0.0000 -0.7071
vn 0.7764 0.6303 -0.0000
vn 1.0000 -0.0000 -0.0000
vn 0.5490 0.6303 0.5490
vn 0.7071 -0.0000 0.7071
vn -0.0000 0.6303 0.7764
vn -0.0000 -0.0000 1.0000
vn -0.5490 0.6303 0.5490
vn -0.7071 -0.0000 0.7071
vn -0.7764 0.6303 -0.0000
vn -1.0000 -0.0000 -0.0000
vn -0.5490 0.6303 -0.5490
vn -0.7071 -0.0000 -0.7071
vn 0.5490 -0.6303 0.5490
vn -0.5490 -0.6303 0.5490
vn -0.5490 -0.6303 -0.5490
vn -0.7042 -0.0903 -0.7042
vn -0.6764 0.2913 -0.6764
vn -0.0000 0.2913 -0.9566
vn -0.0000 -0.0903 -0.9959
vn -0.9959 -0.0903 -0.0000
vn -0.9566 0.2913 -0.0000
vn -0.7042 -0.0903 0.7042
vn -0.6764 0.2913 0.6764
vn -0.0000 -0.0903 0.9959
vn -0.0000 0.2913 0.9566
vn 0.7042 -0.0903 0.7042
vn 0.6764 0.2913 0.6764
vn 0.9959 -0.0903 -0.0000
vn 0.9566 0.2913 -0.0000
vn 0.7042 -0.0903 -0.7042
vn 0.6764 0.2913 -0.6764
vn -0.5697 0.5924 -0.5697
vn -0.0000 0.5924 -0.8057
vn -0.8057 0.5924 -0.0000
vn -0.5697 0.5924 0.5697
vn -0.0000 0.5924 0.8057
vn 0.5697 0.5924 0.5697
vn 0.8057 0.5924 -0.0000
vn 0.5697 0.5924 -0.5697
vn -0.0000 -0.6303 -0.7764
vn -0.0000 0.0903 -0.9959
vn 0.7042 0.0903 -0.7042
vn 0.5490 -0.6303 -0.5490
vn 0.9959 0.0903 -0.0000
vn 0.9955 0.0944 -0.0000
vn 0.7039 0.0944 0.7039
vn 0.7042 0.0903 0.7042
vn 0.7764 -0.6303 -0.0000
vn 0.7039 0.0944 -0.7039
vn -0.0000 0.0944 0.9955
vn -0.0000 0.0903 0.9959
vn -0.0000 -0.6303 0.7764
vn -0.7039 0.0944 0.7039
vn -0.7042 0.0903 0.7042
vn -0.9955 0.0944 -0.0000
vn -0.9959 0.0903 -0.0000
vn -0.7764 -0.6303 -0.0000
vn -0.7039 0.0944 -0.7039
vn -0.7042 0.0903 -0.7042
vn -0.0000 0.0944 -0.9955
vn -0.7039 -0.0944 -0.7039
vn -0.0000 -0.0944 -0.9955
vn -0.9955 -0.0944 -0.0000
vn -0.7039 -0.0944 0.7039
vn -0.0000 -0.0944 0.9955
vn 0.7039 -0.0944 0.7039
vn 0.9955 -0.0944 -0.0000
vn 0.7039 -0.0944 -0.7039
vt 0.355444 0.327432
vt 0.835766 0.806929
vt 0.868785 0.990010
vt 0.732795 0.849430
vt 0.267670 0.327432
vt 0.881318 0.761376
vt 0.838714 0.990010
vt 0.732795 0.879500
vt 0.179896 0.327432
vt 0.945739 0.761376
vt 0.808643 0.990010
vt 0.754058 0.900764
vt 0.092123 0.327432
vt 0.991292 0.806929
vt 0.778572 0.990010
vt 0.784129 0.900764
vt 0.004349 0.327432
vt 0.706539 0.327432
vt 0.991292 0.871350
vt 0.748502 0.990010
vt 0.989067 0.990010
vt 0.805392 0.879500
vt 0.618765 0.327432
vt 0.945740 0.916903
vt 0.958997 0.990010
vt 0.805392 0.849430
vt 0.530992 0.327432
vt 0.881318 0.916903
vt 0.928926 0.990010
vt 0.784129 0.828166
vt 0.443218 0.327432
vt 0.835766 0.871350
vt 0.898855 0.990010
vt 0.754058 0.828166
vt 0.355444 0.838310
vt 0.267670 0.838310
vt 0.179896 0.838310
vt 0.092123 0.838310
vt 0.706539 0.838310
vt 0.004349 0.838310
vt 0.618765 0.838310
vt 0.530992 0.838310
vt 0.443218 0.838310
vt 0.355444 0.998833
vt 0.838714 0.939420
vt 0.808643 0.939420
vt 0.778572 0.939420
vt 0.748502 0.939420
vt 0.989067 0.939420
vt 0.958997 0.939420
vt 0.928926 0.939420
vt 0.898855 0.939420
vt 0.267670 0.760075
vt 0.267670 0.440357
vt 0.179896 0.760075
vt 0.179896 0.440357
vt 0.092123 0.760075
vt 0.092123 0.440357
vt 0.706539 0.760075
vt 0.004349 0.760075
vt 0.004349 0.440357
vt 0.706539 0.440357
vt 0.618765 0.760075
vt 0.618765 0.440357
vt 0.530992 0.760075
vt 0.530992 0.440357
vt 0.443218 0.760075
vt 0.443218 0.440357
vt 0.355444 0.440357
vt 0.355444 0.760075
vt 0.267670 0.489865
vt 0.267670 0.709800
vt 0.179896 0.489865
vt 0.179896 0.709800
vt 0.092123 0.489865
vt 0.092123 0.709800
vt 0.704995 0.489865
vt 0.005893 0.489865
vt 0.704365 0.709800
vt 0.006523 0.709800
vt 0.618765 0.489865
vt 0.618765 0.709800
vt 0.530992 0.489865
vt 0.530992 0.709800
vt 0.443218 0.489865
vt 0.443218 0.709800
vt 0.355444 0.709800
vt 0.355444 0.489865
vt 0.443218 0.998833
vt 0.868784 0.939420
vt 0.530992 0.998833
vt 0.618765 0.998833
vt 0.706539 0.998833
vt 0.004349 0.998833
vt 0.092123 0.998833
vt 0.179896 0.998833
vt 0.267670 0.998833
s 1
f 66/90/1 2/3/2 4/7/3 26/45/4
f 26/45/4 4/7/3 6/11/5 27/46/6
f 27/46/6 6/11/5 8/15/7 28/47/8
f 28/47/8 8/15/7 10/20/9 29/48/10
f 29/49/10 10/21/9 12/25/11 30/50/12
f 30/50/12 12/25/11 14/29/13 31/51/14
f 8/16/7 6/12/5 14/30/13
f 31/51/14 14/29/13 16/33/15 32/52/16
f 32/52/16 16/33/15 2/3/2 66/90/1
f 7/14/17 11/24/18 15/32/19
f 45/67/20 24/43/21 17/35/22 48/70/23
f 43/65/24 23/42/25 24/43/21 45/67/20
f 41/63/26 22/41/27 23/42/25 43/65/24
f 39/59/28 21/39/29 22/41/27 41/63/26
f 37/57/30 20/38/31 21/40/29 39/60/28
f 35/55/32 19/37/33 20/38/31 37/57/30
f 33/53/34 18/36/35 19/37/33 35/55/32
f 48/70/23 17/35/22 18/36/35 33/53/34
f 24/43/21 65/89/36 25/44/37 17/35/22
f 23/42/25 67/91/38 65/89/36 24/43/21
f 22/41/27 68/92/39 67/91/38 23/42/25
f 21/39/29 69/93/40 68/92/39 22/41/27
f 20/38/31 70/95/41 69/94/40 21/40/29
f 19/37/33 71/96/42 70/95/41 20/38/31
f 18/36/35 72/97/43 71/96/42 19/37/33
f 17/35/22 25/44/37 72/97/43 18/36/35
f 1/1/44 47/69/45 34/54/46 3/5/47
f 36/56/48 51/73/49 53/75/50 38/58/51
f 3/5/47 34/54/46 36/56/48 5/9/52
f 34/54/46 49/71/53 51/73/49 36/56/48
f 5/9/52 36/56/48 38/58/51 7/13/17
f 38/58/51 53/75/50 55/78/54 40/61/55
f 7/13/17 38/58/51 40/61/55 9/17/56
f 40/62/55 55/77/54 57/81/57 42/64/58
f 9/18/56 40/62/55 42/64/58 11/23/18
f 42/64/58 57/81/57 59/83/59 44/66/60
f 11/23/18 42/64/58 44/66/60 13/27/61
f 44/66/60 59/83/59 61/85/62 46/68/63
f 13/27/61 44/66/60 46/68/63 15/31/19
f 46/68/63 61/85/62 64/88/64 47/69/45
f 15/31/19 46/68/63 47/69/45 1/1/44
f 62/86/65 45/67/20 48/70/23 63/87/66
f 60/84/67 43/65/24 45/67/20 62/86/65
f 58/82/68 41/63/26 43/65/24 60/84/67
f 56/79/69 39/59/28 41/63/26 58/82/68
f 54/76/70 37/57/30 39/60/28 56/80/69
f 52/74/71 35/55/32 37/57/30 54/76/70
f 63/87/66 48/70/23 33/53/34 50/72/72
f 50/72/72 33/53/34 35/55/32 52/74/71
f 62/86/65 63/87/66 64/88/64 61/85/62
f 60/84/67 62/86/65 61/85/62 59/83/59
f 58/82/68 60/84/67 59/83/59 57/81/57
f 56/79/69 58/82/68 57/81/57 55/77/54
f 54/76/70 56/80/69 55/78/54 53/75/50
f 52/74/71 54/76/70 53/75/50 51/73/49
f 50/72/72 52/74/71 51/73/49 49/71/53
f 63/87/66 50/72/72 49/71/53 64/88/64
f 47/69/45 64/88/64 49/71/53 34/54/46
f 6/12/5 4/8/3 2/4/2
f 2/4/2 16/34/15 6/12/5
f 16/34/15 14/30/13 6/12/5
f 14/30/13 12/26/11 10/22/9
f 10/22/9 8/16/7 14/30/13
f 15/32/19 1/2/44 3/6/47
f 3/6/47 5/10/52 7/14/17
f 7/14/17 9/19/56 11/24/18
f 11/24/18 13/28/61 15/32/19
f 15/32/19 3/6/47 7/14/17
