# Blender v3.3.0 OBJ File: 'vfx2.blend'
# www.blender.org
o Torus
v 1.250000 0.000000 0.000000
v 1.057109 0.180946 0.000000
v 0.875000 0.000000 0.000000
v 1.082532 0.000000 -0.625000
v 0.915483 0.180946 -0.528555
v 0.757772 0.000000 -0.437500
v 0.625000 0.000000 -1.082532
v 0.528555 0.180946 -0.915484
v 0.437500 0.000000 -0.757772
v 0.000000 0.000000 -1.250000
v 0.000000 0.180946 -1.057109
v 0.000000 0.000000 -0.875000
v -0.625000 0.000000 -1.082532
v -0.528554 0.180946 -0.915484
v -0.437500 0.000000 -0.757772
v -1.082532 0.000000 -0.625000
v -0.915483 0.180946 -0.528555
v -0.757772 0.000000 -0.437500
v -1.250000 0.000000 -0.000000
v -1.057109 0.180946 -0.000000
v -0.875000 0.000000 -0.000000
v -1.082532 0.000000 0.625000
v -0.915484 0.180946 0.528554
v -0.757772 0.000000 0.437500
v -0.625000 0.000000 1.082532
v -0.528554 0.180946 0.915484
v -0.437500 0.000000 0.757772
v 0.000000 0.000000 1.250000
v 0.000000 0.180946 1.057109
v 0.000000 0.000000 0.875000
v 0.625000 0.000000 1.082532
v 0.528555 0.180946 0.915484
v 0.437500 0.000000 0.757772
v 1.082532 0.000000 0.625000
v 0.915483 0.180946 0.528555
v 0.757772 0.000000 0.437500
v -0.100000 0.000000 0.100000
v 0.000000 2.000000 0.000000
v -0.100000 0.000000 -0.100000
v 0.100000 0.000000 0.100000
v 0.100000 0.000000 -0.100000
vt 0.500000 0.666667
vt 0.583333 0.666667
vt 0.583333 1.000000
vt 0.500000 1.000000
vt 0.500000 0.000000
vt 0.583333 0.000000
vt 0.583333 0.333333
vt 0.500000 0.333333
vt 0.666667 0.666667
vt 0.666667 1.000000
vt 0.666667 0.000000
vt 0.666667 0.333333
vt 0.750000 0.666667
vt 0.750000 1.000000
vt 0.750000 0.000000
vt 0.750000 0.333333
vt 0.833333 0.666667
vt 0.833333 1.000000
vt 0.833333 0.000000
vt 0.833333 0.333333
vt 0.916667 0.666667
vt 0.916667 1.000000
vt 0.916667 0.000000
vt 0.916667 0.333333
vt 1.000000 0.666667
vt 1.000000 1.000000
vt 1.000000 0.000000
vt 1.000000 0.333333
vt 0.000000 0.666667
vt 0.083333 0.666667
vt 0.083333 1.000000
vt 0.000000 1.000000
vt 0.000000 0.000000
vt 0.083333 0.000000
vt 0.083333 0.333333
vt 0.000000 0.333333
vt 0.166667 0.666667
vt 0.166667 1.000000
vt 0.166667 0.000000
vt 0.166667 0.333333
vt 0.250000 0.666667
vt 0.250000 1.000000
vt 0.250000 0.000000
vt 0.250000 0.333333
vt 0.333333 0.666667
vt 0.333333 1.000000
vt 0.333333 0.000000
vt 0.333333 0.333333
vt 0.416667 0.666667
vt 0.416667 1.000000
vt 0.416667 0.000000
vt 0.416667 0.333333
vt 0.895447 0.260218
vt 0.188821 0.805577
vt 0.837523 0.192452
vt 0.837523 0.192452
vt 0.895447 0.260218
vn 0.6842 0.7293 0.0000
vn 0.5925 0.7293 -0.3421
vn 0.0869 0.9950 -0.0502
vn 0.1003 0.9950 0.0000
vn -0.6104 0.7094 0.3524
vn -0.7048 0.7094 0.0000
vn 0.3421 0.7293 -0.5925
vn 0.0502 0.9950 -0.0869
vn -0.3524 0.7094 0.6104
vn 0.0000 0.7293 -0.6842
vn 0.0000 0.9950 -0.1003
vn -0.0000 0.7094 0.7048
vn -0.3421 0.7293 -0.5925
vn -0.0502 0.9950 -0.0869
vn 0.3524 0.7094 0.6104
vn -0.5925 0.7293 -0.3421
vn -0.0869 0.9950 -0.0502
vn 0.6104 0.7094 0.3524
vn -0.6842 0.7293 -0.0000
vn -0.1003 0.9950 -0.0000
vn 0.7048 0.7094 0.0000
vn -0.5925 0.7293 0.3421
vn -0.0869 0.9950 0.0502
vn 0.6104 0.7094 -0.3524
vn -0.3421 0.7293 0.5925
vn -0.0502 0.9950 0.0869
vn 0.3524 0.7094 -0.6104
vn 0.0000 0.7293 0.6842
vn 0.0000 0.9950 0.1003
vn -0.0000 0.7094 -0.7048
vn 0.3421 0.7293 0.5925
vn 0.0502 0.9950 0.0869
vn -0.3524 0.7094 -0.6104
vn 0.5925 0.7293 0.3421
vn 0.0869 0.9950 0.0502
vn -0.6104 0.7094 -0.3524
vn -0.7053 0.0705 0.7053
vn 0.0000 1.0000 0.0000
vn -0.7053 0.0705 -0.7053
vn 0.7053 0.0705 -0.7053
vn 0.7053 0.0705 0.7053
s 1
f 1/1/1 4/2/2 5/3/3 2/4/4
f 2/5/4 5/6/3 6/7/5 3/8/6
f 4/2/2 7/9/7 8/10/8 5/3/3
f 5/6/3 8/11/8 9/12/9 6/7/5
f 7/9/7 10/13/10 11/14/11 8/10/8
f 8/11/8 11/15/11 12/16/12 9/12/9
f 10/13/10 13/17/13 14/18/14 11/14/11
f 11/15/11 14/19/14 15/20/15 12/16/12
f 13/17/13 16/21/16 17/22/17 14/18/14
f 14/19/14 17/23/17 18/24/18 15/20/15
f 16/21/16 19/25/19 20/26/20 17/22/17
f 17/23/17 20/27/20 21/28/21 18/24/18
f 19/29/19 22/30/22 23/31/23 20/32/20
f 20/33/20 23/34/23 24/35/24 21/36/21
f 22/30/22 25/37/25 26/38/26 23/31/23
f 23/34/23 26/39/26 27/40/27 24/35/24
f 25/37/25 28/41/28 29/42/29 26/38/26
f 26/39/26 29/43/29 30/44/30 27/40/27
f 28/41/28 31/45/31 32/46/32 29/42/29
f 29/43/29 32/47/32 33/48/33 30/44/30
f 31/45/31 34/49/34 35/50/35 32/46/32
f 32/47/32 35/51/35 36/52/36 33/48/33
f 34/49/34 1/1/1 2/4/4 35/50/35
f 35/51/35 2/5/4 3/8/6 36/52/36
f 37/53/37 38/54/38 39/55/39
f 39/55/39 38/54/38 41/56/40
f 41/56/40 38/54/38 40/57/41
f 40/57/41 38/54/38 37/53/37
