# Blender v3.3.0 OBJ File: 'pickups.blend'
# www.blender.org
o Roundcube
v 0.457787 -0.082113 -0.077212
v 0.458595 -0.008353 -0.106204
v 0.469204 -0.020554 -0.028613
v 0.361333 -0.156226 -0.262996
v 0.301146 -0.178063 -0.320230
v 0.301995 -0.100585 -0.350683
v 0.362182 -0.078749 -0.293449
v 0.426159 0.193298 0.012940
v 0.415015 0.206113 -0.068561
v 0.372323 0.278607 -0.051325
v 0.383467 0.265791 0.030177
v 0.226622 0.168783 -0.372479
v 0.185067 0.239347 -0.355702
v 0.243652 0.260603 -0.299991
v 0.285208 0.190039 -0.316769
v 0.103686 -0.137117 -0.443695
v 0.102878 -0.210878 -0.414702
v 0.035739 -0.177819 -0.440804
v -0.013274 -0.366408 -0.306855
v -0.057205 -0.406940 -0.245193
v -0.127727 -0.372215 -0.272610
v -0.083797 -0.331683 -0.334272
v -0.080056 0.009638 -0.468431
v -0.122749 0.082131 -0.451194
v -0.051377 0.124884 -0.454230
v -0.008685 0.052391 -0.471467
v -0.329683 -0.178295 -0.290613
v -0.371239 -0.107731 -0.273836
v -0.328478 -0.068278 -0.333857
v -0.286922 -0.138842 -0.350634
v -0.223308 -0.416828 -0.077198
v -0.156169 -0.449887 -0.051096
v -0.212699 -0.429029 0.000394
v -0.008112 -0.463399 0.113854
v 0.052075 -0.441562 0.171088
v -0.007303 -0.419653 0.225172
v -0.067490 -0.441490 0.167939
v -0.389314 -0.275698 -0.034347
v -0.378170 -0.288514 0.047154
v -0.420862 -0.216020 0.064391
v -0.432006 -0.203204 -0.017110
v -0.249499 -0.270509 0.295821
v -0.190914 -0.249254 0.351531
v -0.232470 -0.178690 0.368309
v -0.291055 -0.199945 0.312599
v 0.142210 -0.300264 0.337884
v 0.198740 -0.321122 0.286395
v 0.210157 -0.259562 0.334994
v 0.366495 -0.253217 0.157713
v 0.410426 -0.212685 0.096051
v 0.422419 -0.148023 0.147099
v 0.378488 -0.188555 0.208761
v 0.116901 -0.092038 0.447024
v 0.074209 -0.019544 0.464261
v 0.002838 -0.062297 0.467297
v 0.045530 -0.134791 0.450060
v 0.365392 0.097824 0.269665
v 0.323836 0.168388 0.286443
v 0.281075 0.128935 0.346464
v 0.322630 0.058371 0.329686
v 0.177753 -0.428152 -0.093335
v 0.220514 -0.388699 -0.153356
v 0.279099 -0.367443 -0.097646
v 0.236338 -0.406897 -0.037625
v 0.217460 0.406921 0.073027
v 0.206851 0.419122 -0.004564
v 0.150321 0.439980 0.046925
v 0.001456 0.409746 -0.229342
v -0.057923 0.431655 -0.175258
v 0.002265 0.453492 -0.118025
v 0.061643 0.431583 -0.172109
v -0.148057 0.290358 -0.342055
v -0.216005 0.249656 -0.339164
v -0.204587 0.311216 -0.290565
v 0.121880 0.362309 0.268439
v 0.051357 0.397033 0.241022
v 0.007427 0.356501 0.302685
v 0.077949 0.321776 0.330102
v -0.242185 0.396990 0.033455
v -0.284946 0.357537 0.093476
v -0.226361 0.378792 0.149186
v -0.183600 0.418245 0.089165
v -0.428266 0.138116 -0.151269
v -0.416273 0.202778 -0.100221
v -0.372343 0.243311 -0.161884
v -0.384335 0.178649 -0.212932
v -0.041586 0.167913 0.436634
v -0.108725 0.200971 0.410532
v -0.109534 0.127210 0.439524
v -0.368029 0.068842 0.289279
v -0.307842 0.090679 0.346513
v -0.306993 0.168156 0.316059
v -0.367180 0.146320 0.258826
v -0.464442 -0.001554 0.102034
v -0.463634 0.072207 0.073041
v -0.475052 0.010647 0.024442
v 0.698895 -0.024925 -0.141666
v 0.474795 -0.242134 -0.478396
v 0.623737 0.331143 -0.077440
v 0.351167 0.283694 -0.547294
v 0.079008 -0.265876 -0.663627
v -0.162799 -0.561316 -0.421898
v -0.112646 0.047117 -0.706778
v -0.500316 -0.240202 -0.452872
v -0.323850 -0.637572 -0.098161
v -0.069973 -0.668069 0.256998
v -0.598036 -0.400727 -0.025469
v -0.374044 -0.385420 0.470636
v 0.295228 -0.470382 0.452792
v 0.572735 -0.354768 0.237894
v 0.149491 -0.129517 0.685371
v 0.493263 0.120278 0.491945
v 0.298786 -0.633673 -0.142202
v 0.250864 0.660724 0.067889
v 0.003939 0.636326 -0.318401
v -0.312493 0.398915 -0.505561
v 0.113022 0.510877 0.479390
v -0.405980 0.563058 0.142342
v -0.634505 0.239667 -0.231450
v -0.152803 0.215267 0.662347
v -0.541679 0.132914 0.447446
v -0.715351 0.027219 0.059905
v 0.407409 -0.051189 -0.066929
v 0.292469 -0.130424 -0.284800
v 0.370217 0.193785 -0.008746
v 0.211614 0.182813 -0.316106
v 0.059618 -0.157910 -0.389487
v -0.038022 -0.328135 -0.267832
v -0.038955 0.050530 -0.419696
v -0.300134 -0.127436 -0.278773
v -0.183842 -0.382538 -0.047759
v -0.023974 -0.403338 0.152102
v -0.374710 -0.205829 0.000503
v -0.222016 -0.217274 0.292551
v 0.168018 -0.270535 0.276542
v 0.346806 -0.180085 0.158517
v 0.052069 -0.092634 0.407870
v 0.293964 0.088108 0.286167
v 0.194228 -0.370855 -0.086578
v 0.174425 0.373105 0.016196
v -0.000508 0.386671 -0.173992
v -0.176978 0.243844 -0.293963
v 0.060599 0.316396 0.272918
v -0.227177 0.344714 0.083561
v -0.368468 0.172110 -0.119563
v -0.087210 0.159576 0.372803
v -0.317162 0.094511 0.270474
v -0.420438 0.019216 0.047766
vt 0.665354 0.417869
vt 0.633133 0.362617
vt 0.815535 0.479409
vt 0.716774 0.384105
vt 0.719502 0.341353
vt 0.801418 0.474838
vt 0.191605 0.481308
vt 0.185938 0.435812
vt 0.042261 0.588564
vt 0.463901 0.701239
vt 0.499669 0.726327
vt 0.606975 0.726435
vt 0.523312 0.500880
vt 0.460845 0.501172
vt 0.683572 0.399750
vt 0.678415 0.364375
vt 0.184177 0.514659
vt 0.500152 0.676508
vt 0.491844 0.446933
vt 0.680536 0.321960
vt 0.178252 0.468667
vt 0.535919 0.700856
vt 0.808965 0.511709
vt 0.813589 0.465759
vt 0.967560 0.432316
vt 0.319393 0.419399
vt 0.277253 0.393228
vt 0.124425 0.553554
vt 0.339381 0.734545
vt 0.307376 0.725772
vt 0.226749 0.866828
vt 0.802425 0.478489
vt 0.351191 0.363814
vt 0.376686 0.762696
vt 0.806836 0.433035
vt 0.308462 0.338690
vt 0.345011 0.754432
vt 0.525548 0.662687
vt 0.461528 0.663020
vt 0.708284 0.391358
vt 0.756125 0.578566
vt 0.716630 0.606908
vt 0.676677 0.337156
vt 0.746951 0.297588
vt 0.775107 0.345877
vt 0.660247 0.202776
vt 0.684704 0.223572
vt 0.769271 0.316091
vt 0.642477 0.204181
vt 0.617459 0.183285
vt 0.496433 0.178291
vt 0.521840 0.197541
vt 0.373311 0.184183
vt 0.349589 0.205278
vt 0.472208 0.197726
vt 0.474055 0.287170
vt 0.523393 0.286972
vt 0.306607 0.225011
vt 0.276146 0.343206
vt 0.315752 0.323463
vt 0.329741 0.204012
vt 0.241399 0.299631
vt 0.220406 0.318341
vt 0.213575 0.348233
vt 0.271689 0.609143
vt 0.232851 0.581148
vt 0.493446 0.180946
vt 0.449931 0.201672
vt 0.525722 0.711092
vt 0.524503 0.784868
vt 0.468524 0.785181
vt 0.462906 0.711428
vt 0.752278 0.624761
vt 0.688015 0.723719
vt 0.649840 0.752760
vt 0.713413 0.653429
vt 0.747693 0.584817
vt 0.752530 0.617418
vt 0.276350 0.655689
vt 0.238107 0.627373
vt 0.657313 0.732822
vt 0.619487 0.761358
vt 0.631442 0.514882
vt 0.669116 0.536832
vt 0.243800 0.619991
vt 0.249382 0.587285
vt 0.279971 0.385990
vt 0.330358 0.538458
vt 0.368582 0.516126
vt 0.318943 0.365903
vt 0.474939 0.330110
vt 0.477483 0.453885
vt 0.522932 0.453679
vt 0.523559 0.329909
vt 0.393095 0.558141
vt 0.355240 0.581102
vt 0.644660 0.579674
vt 0.723103 0.627916
vt 0.500382 0.493141
vt 0.607336 0.557099
vt 0.274425 0.630199
vt 0.492624 0.222820
vt 0.536142 0.201350
vt 0.497167 0.792688
vt 0.754701 0.397927
vt 0.082659 0.506814
vt 0.521233 0.063127
vt 0.269696 0.068314
vt 0.631748 0.745521
vt 0.132881 0.493838
vt 0.491240 0.017968
vt 0.217809 0.395364
vt 0.628399 0.161795
vt 0.901397 0.662721
vt 0.497152 0.966576
vt 0.313909 0.586487
vt 0.769640 0.863658
vt 0.156612 0.548791
vt 0.944233 0.438052
vt 0.720977 0.066821
vt 0.863590 0.650232
vt 0.087892 0.213005
vt 0.493679 0.467645
vt 0.637183 0.382241
vt 0.646506 0.406306
vt 0.500964 0.486627
vt 0.501899 0.658240
vt 0.484413 0.652443
vt 0.480994 0.489842
vt 0.665709 0.390605
vt 0.717311 0.592245
vt 0.702959 0.595598
vt 0.656259 0.376170
vt 0.725276 0.328803
vt 0.736913 0.348760
vt 0.639455 0.232783
vt 0.648346 0.238223
vt 0.735758 0.335829
vt 0.780120 0.461208
vt 0.778626 0.467290
vt 0.634044 0.226970
vt 0.677134 0.354607
vt 0.686672 0.358780
vt 0.622507 0.222962
vt 0.497584 0.216810
vt 0.503716 0.221534
vt 0.368772 0.223927
vt 0.357519 0.228025
vt 0.487354 0.224678
vt 0.491012 0.313892
vt 0.504891 0.315115
vt 0.343086 0.239399
vt 0.309268 0.360378
vt 0.319098 0.356118
vt 0.351419 0.233887
vt 0.259790 0.332912
vt 0.255803 0.337606
vt 0.329644 0.377571
vt 0.320466 0.392102
vt 0.253316 0.350151
vt 0.211129 0.471998
vt 0.216148 0.459707
vt 0.339402 0.407652
vt 0.286518 0.597675
vt 0.272399 0.594458
vt 0.493513 0.222315
vt 0.477883 0.230473
vt 0.506595 0.671774
vt 0.508233 0.749272
vt 0.485101 0.749399
vt 0.481352 0.672933
vt 0.716176 0.602275
vt 0.649368 0.713108
vt 0.636767 0.718958
vt 0.697890 0.615532
vt 0.774786 0.474312
vt 0.718196 0.589292
vt 0.719513 0.597339
vt 0.775011 0.490186
vt 0.292174 0.617581
vt 0.358456 0.720454
vt 0.346158 0.714733
vt 0.274046 0.604489
vt 0.641782 0.710905
vt 0.512890 0.678843
vt 0.499495 0.689350
vt 0.621501 0.722581
vt 0.671749 0.367152
vt 0.623970 0.532412
vt 0.637063 0.536113
vt 0.686607 0.378610
vt 0.216034 0.489875
vt 0.276869 0.599549
vt 0.278503 0.591476
vt 0.221023 0.478773
vt 0.309745 0.380229
vt 0.362150 0.537432
vt 0.375526 0.533601
vt 0.324821 0.368630
vt 0.488490 0.334739
vt 0.491085 0.461563
vt 0.506214 0.463873
vt 0.508568 0.331432
vt 0.499722 0.675680
vt 0.386368 0.543202
vt 0.371073 0.555697
vt 0.486374 0.678982
vt 0.628246 0.554448
vt 0.707381 0.601940
vt 0.500805 0.478226
vt 0.613217 0.542110
vt 0.289501 0.604032
vt 0.374214 0.723914
vt 0.354120 0.712445
vt 0.493303 0.242507
vt 0.348535 0.383485
vt 0.509050 0.230353
vt 0.496860 0.754219
vn 0.6744 0.7383 0.0035
vn 0.6596 -0.5808 0.4771
vn 0.5767 -0.4474 -0.6836
vn -0.2036 0.8091 -0.5513
vn 0.3992 -0.3453 -0.8494
vn -0.6847 -0.4597 -0.5655
vn -0.8533 0.0638 0.5175
vn -0.2162 -0.9350 0.2812
vn 0.3499 -0.2068 0.9137
vn -0.0576 0.0997 0.9933
vn 0.6645 0.7468 0.0266
vn -0.6794 0.7049 0.2037
vn 0.1334 0.5704 -0.8105
vn 0.5249 0.2554 0.8119
vn 0.9576 0.0468 -0.2843
vn -0.9163 0.1392 0.3755
vn 0.2887 0.8916 0.3489
vn -0.9604 -0.2630 0.0923
vn 0.3655 -0.9159 -0.1656
vn -0.1357 -0.9584 0.2511
vn 0.9495 -0.3092 0.0528
vn -0.3155 0.3801 -0.8695
vn 0.2761 0.9317 -0.2361
vn 0.8499 -0.1370 -0.5089
vn -0.1857 -0.0720 -0.9800
vn 0.6944 0.7101 0.1163
vn 0.0778 0.0719 0.9944
vn 0.7167 -0.6085 0.3407
vn -0.8544 0.2383 0.4617
vn 0.2497 -0.4511 0.8568
vn 0.1916 0.6109 0.7681
vn -0.9613 0.2583 -0.0963
vn 0.4783 -0.3386 -0.8103
vn -0.2149 0.8486 -0.4835
vn -0.2373 -0.9022 -0.3602
vn -0.2524 -0.9479 0.1941
vn 0.9711 0.2321 -0.0562
vn 0.4774 -0.3809 -0.7918
vn 0.7371 -0.4290 0.5221
vn -0.2403 0.3700 -0.8974
vn 0.0036 -0.6186 -0.7857
vn 0.9622 -0.2678 0.0495
vn -0.3133 -0.8790 -0.3595
vn 0.5165 -0.8559 0.0260
vn 0.5455 0.6570 -0.5203
vn 0.8056 -0.3104 -0.5047
vn -0.1981 0.3519 -0.9148
vn -0.9042 -0.1496 -0.4001
vn -0.9770 -0.1471 0.1541
vn 0.2883 -0.8210 0.4928
vn 0.6993 -0.6925 -0.1774
vn -0.6587 0.0051 -0.7524
vn 0.0035 -0.6397 -0.7686
vn -0.9749 -0.2073 0.0809
vn -0.4735 -0.2457 0.8458
vn 0.2157 -0.7925 0.5704
vn 0.0211 -0.5311 -0.8470
vn -0.0432 0.1300 0.9906
vn 0.6369 -0.5779 0.5102
vn -0.2651 -0.8563 -0.4433
vn 0.9406 -0.3295 0.0823
vn 0.4298 -0.7426 -0.5136
vn -0.6920 -0.3704 0.6196
vn 0.6654 0.5005 0.5538
vn 0.8950 -0.2131 -0.3919
vn 0.1947 -0.8179 0.5414
vn -0.7359 -0.6762 -0.0342
vn 0.2569 -0.4440 0.8584
vn -0.1843 0.8127 -0.5528
vn 0.5073 0.3375 -0.7929
vn 0.7190 0.0287 0.6945
vn 0.0814 0.5792 0.8111
vn -0.6647 0.5054 -0.5503
vn 0.0159 -0.1305 -0.9913
vn 0.9517 0.2661 -0.1532
vn 0.2814 0.8848 0.3714
vn -0.6686 -0.5335 -0.5180
vn 0.6909 0.3663 -0.6233
vn 0.2094 0.9640 -0.1641
vn -0.4674 0.2984 0.8321
vn -0.9427 0.3054 -0.1340
vn -0.0179 0.6239 0.7813
vn -0.6683 -0.7432 0.0324
vn 0.0244 -0.1054 -0.9941
vn 0.8641 0.2235 0.4511
vn -0.5682 -0.6700 0.4778
vn -0.0044 0.6108 0.7918
vn 0.2885 -0.4167 0.8621
vn -0.6577 -0.7519 -0.0459
vn -0.9712 0.2286 -0.0665
vn -0.5659 0.3124 0.7630
vn -0.2691 -0.5882 0.7626
vn -0.4621 -0.3002 -0.8345
vn -0.7317 0.4643 -0.4991
vn -0.6885 0.5354 -0.4892
vn 0.2009 0.9042 0.3769
vn 0.1261 0.9870 -0.0995
vn -0.4263 0.7860 0.4477
vn -0.2450 0.9487 0.1998
vn -0.5378 0.3751 0.7550
vn -0.4937 0.8696 0.0098
vn 0.9646 0.2431 -0.1022
vn 0.0399 -0.1442 -0.9887
vn -0.7900 0.5921 0.1588
vn -0.9319 0.2033 -0.3003
vn 0.6801 0.0355 0.7323
vn -0.5090 -0.8317 -0.2219
vn -0.2401 -0.9054 0.3501
vn 0.8949 0.3850 -0.2257
vn -0.2658 0.2042 0.9422
vn 0.2886 -0.9390 -0.1871
vn -0.8115 0.0647 0.5808
vn -0.7736 -0.6145 -0.1548
vn 0.4652 0.2825 -0.8389
vn 0.2424 0.9629 0.1183
vn -0.9997 0.0016 -0.0238
vn 0.0086 0.8214 -0.5703
vn -0.5309 -0.6366 0.5594
vn -0.0040 -0.3658 -0.9307
vn -0.3606 -0.7668 -0.5310
vn -0.4947 0.4675 -0.7326
vn 0.4494 -0.7119 0.5396
vn -0.9866 0.0113 0.1625
vn -0.7353 0.2445 0.6321
vn -0.8370 -0.5467 0.0230
vn -0.5132 -0.5119 0.6889
vn -0.1725 0.3493 0.9210
vn 0.1379 0.7823 0.6074
vn 0.1441 -0.1964 0.9699
vn 0.7015 0.2625 0.6625
vn 0.4007 0.9141 0.0617
vn -0.0074 0.9194 -0.3932
vn 0.8561 0.5132 -0.0603
vn 0.4924 0.4632 -0.7369
vn -0.4030 0.6053 -0.6865
vn -0.8708 0.3834 -0.3080
vn -0.1187 0.1122 -0.9866
vn -0.6993 -0.3047 -0.6466
vn -0.5116 0.8411 0.1757
vn -0.3750 -0.9177 -0.1313
vn -0.0235 -0.9410 0.3376
vn 0.4039 -0.6174 0.6751
vn -0.1770 -0.7838 -0.5953
vn 0.4575 -0.8677 -0.1943
vn 0.8226 -0.4467 0.3519
vn 0.1554 -0.3369 -0.9286
vn 0.6900 -0.2607 -0.6752
vn 0.9808 -0.0739 -0.1805
s 1
f 7/1/1 4/2/2 98/3/3
f 29/4/4 30/5/5 104/6/6
f 55/7/7 56/8/8 111/9/9
f 81/10/10 82/11/11 118/12/12
f 2/13/13 3/14/14 97/15/15
f 28/16/16 29/4/4 104/6/6
f 54/17/17 55/7/7 111/9/9
f 80/18/18 81/10/10 118/12/12
f 1/19/19 2/13/13 97/15/15
f 27/20/20 28/16/16 104/6/6
f 53/21/21 54/17/17 111/9/9
f 79/22/22 80/18/18 118/12/12
f 3/14/14 1/19/19 97/15/15
f 30/5/5 27/20/20 104/6/6
f 56/8/8 53/21/21 111/9/9
f 82/11/11 79/22/22 118/12/12
f 25/23/23 26/24/24 103/25/25
f 51/26/26 52/27/27 110/28/28
f 77/29/29 78/30/30 117/31/31
f 24/32/32 25/23/23 103/25/25
f 50/33/33 51/26/26 110/28/28
f 76/34/34 77/29/29 117/31/31
f 23/35/35 24/32/32 103/25/25
f 49/36/36 50/33/33 110/28/28
f 75/37/37 76/34/34 117/31/31
f 26/24/24 23/35/35 103/25/25
f 1/19/19 4/2/2 7/1/1 2/13/13
f 2/13/13 9/38/38 8/39/39 3/14/14
f 6/40/40 12/41/41 15/42/42 7/1/1
f 5/43/43 17/44/44 16/45/45 6/40/40
f 17/44/44 19/46/46 22/47/47 18/48/48
f 18/48/48 23/35/35 26/24/24 16/45/45
f 21/49/49 27/20/20 30/5/5 22/47/47
f 20/50/50 32/51/51 31/52/52 21/49/49
f 32/51/51 34/53/53 37/54/54 33/55/55
f 33/55/55 39/56/56 38/57/57 31/52/52
f 36/58/58 43/59/59 42/60/60 37/54/54
f 35/61/61 47/62/62 46/63/63 36/58/58
f 47/62/62 49/36/36 52/27/27 48/64/64
f 48/64/64 53/21/21 56/8/8 46/63/63
f 51/26/26 57/65/65 60/66/66 52/27/27
f 34/53/53 61/67/67 64/68/68 35/61/61
f 10/69/69 66/70/70 65/71/71 11/72/72
f 13/73/73 68/74/74 71/75/75 14/76/76
f 24/32/32 73/77/77 72/78/78 25/23/23
f 58/79/79 75/37/37 78/30/30 59/80/80
f 69/81/81 79/22/22 82/11/11 70/82/82
f 28/16/16 83/83/83 86/84/84 29/4/4
f 54/17/17 87/85/85 89/86/86 55/7/7
f 44/87/87 91/88/88 90/89/89 45/90/90
f 40/91/91 94/92/92 96/93/93 41/94/94
f 43/59/59 56/8/8 55/7/7 44/87/87
f 9/38/38 15/42/42 14/76/76 10/69/69
f 80/18/18 93/95/95 92/96/96 81/10/10
f 73/77/77 86/84/84 85/97/97 74/98/98
f 39/56/56 42/60/60 45/90/90 40/91/91
f 83/83/83 96/93/93 95/99/99 84/100/100
f 88/101/101 92/96/96 91/88/88 89/86/86
f 12/41/41 26/24/24 25/23/23 13/73/73
f 76/34/34 82/11/11 81/10/10 77/29/29
f 49/36/36 64/68/68 63/102/102 50/33/33
f 53/21/21 60/66/66 59/80/80 54/17/17
f 93/95/95 95/99/99 94/92/92 90/89/89
f 3/14/14 51/26/26 50/33/33 1/19/19
f 23/35/35 30/5/5 29/4/4 24/32/32
f 4/2/2 63/102/102 62/103/103 5/43/43
f 11/72/72 58/79/79 57/65/65 8/39/39
f 79/22/22 85/97/97 84/100/100 80/18/18
f 66/70/70 71/75/75 70/82/82 67/104/104
f 77/29/29 88/101/101 87/85/85 78/30/30
f 27/20/20 38/57/57 41/94/94 28/16/16
f 67/104/104 76/34/34 75/37/37 65/71/71
f 68/74/74 72/78/78 74/98/98 69/81/81
f 19/46/46 62/103/103 61/67/67 20/50/50
f 86/84/84 83/83/83 119/105/105
f 60/66/66 57/65/65 112/106/106
f 33/55/55 31/52/52 105/107/107
f 4/2/2 5/43/43 98/3/3
f 83/83/83 84/100/100 119/105/105
f 57/65/65 58/79/79 112/106/106
f 31/52/52 32/51/51 105/107/107
f 5/43/43 6/40/40 98/3/3
f 84/100/100 85/97/97 119/105/105
f 58/79/79 59/80/80 112/106/106
f 32/51/51 33/55/55 105/107/107
f 6/40/40 7/1/1 98/3/3
f 85/97/97 86/84/84 119/105/105
f 59/80/80 60/66/66 112/106/106
f 37/54/54 34/53/53 106/108/108
f 11/72/72 8/39/39 99/109/109
f 89/86/86 87/85/85 120/110/110
f 64/68/68 61/67/67 113/111/111
f 34/53/53 35/61/61 106/108/108
f 8/39/39 9/38/38 99/109/109
f 87/85/85 88/101/101 120/110/110
f 61/67/67 62/103/103 113/111/111
f 35/61/61 36/58/58 106/108/108
f 9/38/38 10/69/69 99/109/109
f 88/101/101 89/86/86 120/110/110
f 62/103/103 63/102/102 113/111/111
f 36/58/58 37/54/54 106/108/108
f 10/69/69 11/72/72 99/109/109
f 93/95/95 90/89/89 121/112/112
f 63/102/102 64/68/68 113/111/111
f 41/94/94 38/57/57 107/113/113
f 15/42/42 12/41/41 100/114/114
f 90/89/89 91/88/88 121/112/112
f 67/104/104 65/71/71 114/115/115
f 38/57/57 39/56/56 107/113/113
f 12/41/41 13/73/73 100/114/114
f 91/88/88 92/96/96 121/112/112
f 65/71/71 66/70/70 114/115/115
f 39/56/56 40/91/91 107/113/113
f 13/73/73 14/76/76 100/114/114
f 92/96/96 93/95/95 121/112/112
f 66/70/70 67/104/104 114/115/115
f 40/91/91 41/94/94 107/113/113
f 14/76/76 15/42/42 100/114/114
f 96/93/93 94/92/92 122/116/116
f 71/75/75 68/74/74 115/117/117
f 45/90/90 42/60/60 108/118/118
f 18/48/48 16/45/45 101/119/119
f 94/92/92 95/99/99 122/116/116
f 68/74/74 69/81/81 115/117/117
f 42/60/60 43/59/59 108/118/118
f 16/45/45 17/44/44 101/119/119
f 95/99/99 96/93/93 122/116/116
f 69/81/81 70/82/82 115/117/117
f 43/59/59 44/87/87 108/118/118
f 17/44/44 18/48/48 101/119/119
f 70/82/82 71/75/75 115/117/117
f 44/87/87 45/90/90 108/118/118
f 22/47/47 19/46/46 102/120/120
f 74/98/98 72/78/78 116/121/121
f 48/64/64 46/63/63 109/122/122
f 19/46/46 20/50/50 102/120/120
f 72/78/78 73/77/77 116/121/121
f 46/63/63 47/62/62 109/122/122
f 20/50/50 21/49/49 102/120/120
f 73/77/77 74/98/98 116/121/121
f 47/62/62 48/64/64 109/122/122
f 21/49/49 22/47/47 102/120/120
f 78/30/30 75/37/37 117/31/31
f 52/27/27 49/36/36 110/28/28
f 4/2/2 1/19/19 123/123/123 124/124/124
f 2/13/13 7/1/1 124/125/124 123/126/123
f 9/38/38 2/13/13 123/126/123 125/127/125
f 3/14/14 8/39/39 125/128/125 123/129/123
f 12/41/41 6/40/40 124/130/124 126/131/126
f 7/1/1 15/42/42 126/132/126 124/125/124
f 17/44/44 5/43/43 124/133/124 127/134/127
f 6/40/40 16/45/45 127/135/127 124/130/124
f 19/46/46 17/44/44 127/134/127 128/136/128
f 18/48/48 22/47/47 128/137/128 127/138/127
f 23/35/35 18/48/48 127/138/127 129/139/129
f 16/45/45 26/24/24 129/140/129 127/135/127
f 27/20/20 21/49/49 128/141/128 130/142/130
f 22/47/47 30/5/5 130/143/130 128/137/128
f 32/51/51 20/50/50 128/144/128 131/145/131
f 21/49/49 31/52/52 131/146/131 128/141/128
f 34/53/53 32/51/51 131/145/131 132/147/132
f 33/55/55 37/54/54 132/148/132 131/149/131
f 39/56/56 33/55/55 131/149/131 133/150/133
f 31/52/52 38/57/57 133/151/133 131/146/131
f 43/59/59 36/58/58 132/152/132 134/153/134
f 37/54/54 42/60/60 134/154/134 132/148/132
f 47/62/62 35/61/61 132/155/132 135/156/135
f 36/58/58 46/63/63 135/157/135 132/152/132
f 49/36/36 47/62/62 135/156/135 136/158/136
f 48/64/64 52/27/27 136/159/136 135/160/135
f 53/21/21 48/64/64 135/160/135 137/161/137
f 46/63/63 56/8/8 137/162/137 135/157/135
f 57/65/65 51/26/26 136/163/136 138/164/138
f 52/27/27 60/66/66 138/165/138 136/159/136
f 61/67/67 34/53/53 132/147/132 139/166/139
f 35/61/61 64/68/68 139/167/139 132/155/132
f 66/70/70 10/69/69 125/168/125 140/169/140
f 11/72/72 65/71/71 140/170/140 125/171/125
f 68/74/74 13/73/73 126/172/126 141/173/141
f 14/76/76 71/75/75 141/174/141 126/175/126
f 73/77/77 24/32/32 129/176/129 142/177/142
f 25/23/23 72/78/78 142/178/142 129/179/129
f 75/37/37 58/79/79 138/180/138 143/181/143
f 59/80/80 78/30/30 143/182/143 138/183/138
f 79/22/22 69/81/81 141/184/141 144/185/144
f 70/82/82 82/11/11 144/186/144 141/187/141
f 83/83/83 28/16/16 130/188/130 145/189/145
f 29/4/4 86/84/84 145/190/145 130/191/130
f 87/85/85 54/17/17 137/192/137 146/193/146
f 55/7/7 89/86/86 146/194/146 137/195/137
f 91/88/88 44/87/87 134/196/134 147/197/147
f 45/90/90 90/89/89 147/198/147 134/199/134
f 94/92/92 40/91/91 133/200/133 148/201/148
f 41/94/94 96/93/93 148/202/148 133/203/133
f 56/8/8 43/59/59 134/153/134 137/162/137
f 44/87/87 55/7/7 137/195/137 134/196/134
f 15/42/42 9/38/38 125/127/125 126/132/126
f 10/69/69 14/76/76 126/175/126 125/168/125
f 93/95/95 80/18/18 144/204/144 147/205/147
f 81/10/10 92/96/96 147/206/147 144/207/144
f 86/84/84 73/77/77 142/177/142 145/190/145
f 74/98/98 85/97/97 145/208/145 142/209/142
f 42/60/60 39/56/56 133/150/133 134/154/134
f 40/91/91 45/90/90 134/199/134 133/200/133
f 96/93/93 83/83/83 145/189/145 148/202/148
f 84/100/100 95/99/99 148/210/148 145/211/145
f 92/96/96 88/101/101 146/212/146 147/206/147
f 89/86/86 91/88/88 147/197/147 146/194/146
f 26/24/24 12/41/41 126/131/126 129/140/129
f 13/73/73 25/23/23 129/179/129 126/172/126
f 82/11/11 76/34/34 143/213/143 144/186/144
f 77/29/29 81/10/10 144/207/144 143/214/143
f 64/68/68 49/36/36 136/158/136 139/167/139
f 50/33/33 63/102/102 139/215/139 136/216/136
f 60/66/66 53/21/21 137/161/137 138/165/138
f 54/17/17 59/80/80 138/183/138 137/192/137
f 95/99/99 93/95/95 147/205/147 148/210/148
f 90/89/89 94/92/92 148/201/148 147/198/147
f 51/26/26 3/14/14 123/129/123 136/163/136
f 1/19/19 50/33/33 136/216/136 123/123/123
f 30/5/5 23/35/35 129/139/129 130/143/130
f 24/32/32 29/4/4 130/191/130 129/176/129
f 63/102/102 4/2/2 124/124/124 139/215/139
f 5/43/43 62/103/103 139/217/139 124/133/124
f 58/79/79 11/72/72 125/171/125 138/180/138
f 8/39/39 57/65/65 138/164/138 125/128/125
f 85/97/97 79/22/22 144/185/144 145/208/145
f 80/18/18 84/100/100 145/211/145 144/204/144
f 71/75/75 66/70/70 140/169/140 141/174/141
f 67/104/104 70/82/82 141/187/141 140/218/140
f 88/101/101 77/29/29 143/214/143 146/212/146
f 78/30/30 87/85/85 146/193/146 143/182/143
f 38/57/57 27/20/20 130/142/130 133/151/133
f 28/16/16 41/94/94 133/203/133 130/188/130
f 76/34/34 67/104/104 140/218/140 143/213/143
f 65/71/71 75/37/37 143/181/143 140/170/140
f 72/78/78 68/74/74 141/173/141 142/178/142
f 69/81/81 74/98/98 142/209/142 141/184/141
f 62/103/103 19/46/46 128/136/128 139/217/139
f 20/50/50 61/67/67 139/166/139 128/144/128
